<svg xmlns="http://www.w3.org/2000/svg" width="500" height="500" viewBox="0 0 500 500"><rect width="100%" height="100%" fill="#DDDDDD"/><path fill="#999999" d="M195.27 237.455q0 11.05-3.68 20.3-3.68 9.24-10.36 15.91-6.67 6.67-16.05 10.36-9.38 3.68-20.85 3.68h-38.3v-100.5h38.3q11.47 0 20.85 3.72t16.05 10.36q6.68 6.63 10.36 15.88 3.68 9.24 3.68 20.29m-19.18 0q0-8.27-2.19-14.84-2.19-6.56-6.32-11.12-4.14-4.55-10.01-6.98t-13.24-2.43H124.8v70.75h19.53q7.37 0 13.24-2.44 5.87-2.43 10.01-6.98 4.13-4.55 6.32-11.12t2.19-14.84m48.09-16.75 1.05 8.06q3.33-6.39 7.92-10.04t10.84-3.65q4.94 0 7.92 2.16l-1.11 12.85q-.34 1.26-1.01 1.78-.66.52-1.77.52-1.04 0-3.09-.35t-4-.35q-2.85 0-5.07.84-2.22.83-4 2.39-1.77 1.57-3.12 3.79-1.36 2.23-2.54 5.08v43.92h-17.17v-71.31h10.08q2.64 0 3.68.94 1.05.94 1.39 3.37m74.37 48.58v-12.02q-7.44.35-12.51 1.28-5.07.94-8.13 2.4t-4.38 3.41q-1.32 1.94-1.32 4.24 0 4.51 2.67 6.46 2.68 1.95 6.99 1.95 5.28 0 9.14-1.91 3.86-1.92 7.54-5.81m-36.28-37.46-3.06-5.49q12.3-11.26 29.61-11.26 6.25 0 11.19 2.05 4.93 2.05 8.34 5.7 3.4 3.65 5.18 8.72 1.77 5.08 1.77 11.12v45.04h-7.79q-2.43 0-3.75-.73t-2.08-2.95l-1.53-5.15q-2.71 2.44-5.28 4.28-2.58 1.84-5.36 3.09t-5.94 1.91-6.98.66q-4.52 0-8.34-1.21-3.83-1.22-6.61-3.65-2.78-2.44-4.3-6.05-1.53-3.61-1.53-8.41 0-2.71.9-5.39.9-2.67 2.95-5.1 2.05-2.44 5.32-4.59 3.27-2.16 8.03-3.75 4.76-1.6 11.08-2.61 6.33-1.01 14.46-1.22v-4.17q0-7.15-3.06-10.59-3.06-3.45-8.83-3.45-4.17 0-6.91.98-2.75.97-4.83 2.19-2.09 1.21-3.79 2.19-1.7.97-3.79.97-1.8 0-3.05-.94-1.26-.94-2.02-2.19m95.22 18.49q3.19 0 5.56-.87 2.36-.87 3.92-2.4 1.57-1.53 2.36-3.68.8-2.16.8-4.73 0-5.28-3.16-8.37t-9.48-3.09q-6.33 0-9.49 3.09t-3.16 8.37q0 2.5.8 4.66.79 2.15 2.36 3.72 1.56 1.56 3.96 2.43t5.53.87m19.39 40.59q0-2.09-1.26-3.41-1.25-1.32-3.4-2.05-2.16-.73-5.04-1.08-2.88-.34-6.12-.52-3.23-.17-6.67-.31t-6.7-.56q-2.85 1.6-4.63 3.76-1.77 2.15-1.77 5 0 1.88.94 3.51t2.99 2.82q2.05 1.18 5.32 1.84 3.26.66 7.99.66 4.79 0 8.27-.73 3.47-.73 5.73-2.02 2.26-1.28 3.3-3.06 1.05-1.77 1.05-3.85m-3.41-72.07h20.5v6.39q0 3.06-3.68 3.75l-6.39 1.18q1.45 3.69 1.45 8.07 0 5.28-2.12 9.55-2.11 4.28-5.87 7.26-3.75 2.99-8.86 4.63-5.11 1.63-11.01 1.63-2.09 0-4.04-.21-1.94-.21-3.82-.55-3.33 2.01-3.33 4.51 0 2.16 1.98 3.17 1.98 1 5.24 1.42 3.27.42 7.44.52 4.17.11 8.55.45 4.38.35 8.55 1.22t7.43 2.74q3.27 1.88 5.25 5.11t1.98 8.31q0 4.72-2.33 9.17-2.32 4.45-6.74 7.93-4.41 3.47-10.84 5.59t-14.63 2.12q-8.06 0-14.04-1.56-5.98-1.57-9.94-4.17-3.96-2.61-5.9-6.02-1.95-3.4-1.95-7.08 0-5.01 3.02-8.38 3.03-3.37 8.31-5.39-2.85-1.46-4.52-3.89t-1.67-6.39q0-1.6.59-3.3.59-1.71 1.74-3.37 1.15-1.67 2.88-3.17 1.74-1.49 4.11-2.67-5.43-2.92-8.52-7.79-3.09-4.86-3.09-11.39 0-5.29 2.12-9.56t5.91-7.3q3.78-3.02 8.96-4.62t11.3-1.6q4.58 0 8.61.94t7.37 2.75"/></svg>