<svg width="316" height="462" viewBox="0 0 316 462" fill="none" xmlns="http://www.w3.org/2000/svg">
<rect x="0.804688" width="314.804" height="461.347" fill="#E7F1FA"/>
<mask id="mask0_3516_16135" style="mask-type:alpha" maskUnits="userSpaceOnUse" x="0" y="0" width="316" height="462">
<rect x="0.804688" width="314.804" height="461.347" fill="#CAE1F5"/>
</mask>
<g mask="url(#mask0_3516_16135)">
<path d="M259.723 155.683C278.439 153.897 292.163 137.277 290.376 118.561C288.59 99.846 271.97 86.1221 253.255 87.9083C234.539 89.6945 220.815 106.315 222.601 125.03C224.388 143.746 241.008 157.469 259.723 155.683Z" fill="#CAE1F5"/>
<path d="M273.104 152.165C290.237 144.426 297.853 124.262 290.114 107.129C282.375 89.9949 262.212 82.379 245.078 90.118C227.944 97.8571 220.328 118.021 228.068 135.154C235.807 152.288 255.97 159.904 273.104 152.165Z" fill="#CAE1F5"/>
<path d="M264.618 154.467C283.343 152.793 297.165 136.257 295.492 117.532C293.818 98.8075 277.281 84.985 258.557 86.6588C239.832 88.3326 226.009 104.869 227.683 123.594C229.357 142.319 245.893 156.141 264.618 154.467Z" fill="#CAE1F5"/>
<path d="M234.731 137.343C244.239 153.561 265.094 158.999 281.312 149.491C297.529 139.982 302.968 119.127 293.459 102.909C283.95 86.6918 263.095 81.2532 246.878 90.7619C230.66 100.271 225.222 121.126 234.731 137.343Z" fill="#CAE1F5"/>
<path d="M266.234 153.784C285.032 154.04 300.478 139.008 300.733 120.21C300.988 101.411 285.956 85.9655 267.158 85.7102C248.36 85.455 232.914 100.487 232.659 119.285C232.404 138.083 247.436 153.529 266.234 153.784Z" fill="#CAE1F5"/>
<path d="M268.946 153.547C287.746 153.686 303.099 138.558 303.238 119.759C303.377 100.959 288.25 85.6059 269.45 85.4668C250.65 85.3276 235.297 100.455 235.158 119.255C235.019 138.054 250.146 153.407 268.946 153.547Z" fill="#CAE1F5"/>
<path d="M261.904 151.934C279.91 157.338 298.889 147.122 304.293 129.116C309.697 111.109 299.481 92.131 281.475 86.7267C263.468 81.3225 244.49 91.5385 239.086 109.545C233.681 127.551 243.898 146.53 261.904 151.934Z" fill="#CAE1F5"/>
<path d="M275.298 153.269C294.088 152.662 308.829 136.936 308.221 118.146C307.614 99.355 291.888 84.6147 273.098 85.2222C254.307 85.8298 239.567 101.555 240.174 120.346C240.782 139.136 256.507 153.877 275.298 153.269Z" fill="#CAE1F5"/>
<path d="M273.543 153.105C292.267 154.805 308.824 141.004 310.524 122.28C312.224 103.556 298.424 86.999 279.7 85.299C260.976 83.5989 244.419 97.3995 242.719 116.124C241.019 134.848 254.819 151.405 273.543 153.105Z" fill="#CAE1F5"/>
<path d="M257.607 145.647C272.176 157.529 293.618 155.35 305.5 140.781C317.381 126.212 315.202 104.77 300.633 92.8883C286.064 81.0068 264.622 83.1855 252.741 97.7545C240.859 112.324 243.038 133.766 257.607 145.647Z" fill="#CAE1F5"/>
<path d="M265.42 149.428C281.98 158.328 302.62 152.119 311.521 135.559C320.422 118.999 314.213 98.3591 297.653 89.4583C281.093 80.5574 260.452 86.7664 251.552 103.326C242.651 119.886 248.86 140.527 265.42 149.428Z" fill="#CAE1F5"/>
<path d="M261.006 144.789C274.881 157.475 296.413 156.511 309.099 142.636C321.786 128.761 320.822 107.229 306.947 94.5429C293.072 81.8566 271.54 82.8201 258.854 96.6951C246.167 110.57 247.131 132.102 261.006 144.789Z" fill="#CAE1F5"/>
<path d="M296.411 152.451C314.361 146.862 324.381 127.78 318.793 109.831C313.204 91.8811 294.122 81.8605 276.173 87.4492C258.223 93.0378 248.202 112.119 253.791 130.069C259.38 148.019 278.461 158.039 296.411 152.451Z" fill="#CAE1F5"/>
<path d="M284.177 154.099C302.813 156.584 319.934 143.49 322.418 124.854C324.902 106.219 311.809 89.0974 293.173 86.6132C274.537 84.129 257.416 97.2225 254.932 115.858C252.448 134.494 265.541 151.615 284.177 154.099Z" fill="#CAE1F5"/>
<path d="M263.86 141.306C275.176 156.32 296.521 159.317 311.535 148C326.548 136.684 329.545 115.339 318.229 100.325C306.912 85.3116 285.567 82.3146 270.554 93.6312C255.54 104.948 252.543 126.293 263.86 141.306Z" fill="#CAE1F5"/>
<path d="M307.873 152.083C324.868 144.048 332.132 123.756 324.096 106.76C316.06 89.7651 295.768 82.502 278.773 90.5378C261.777 98.5736 254.514 118.865 262.55 135.861C270.586 152.856 290.878 160.119 307.873 152.083Z" fill="#CAE1F5"/>
<path d="M302.315 155.309C320.751 151.626 332.71 133.695 329.027 115.26C325.344 96.8243 307.413 84.8652 288.978 88.5482C270.542 92.2311 258.583 110.162 262.266 128.597C265.949 147.032 283.88 158.992 302.315 155.309Z" fill="#CAE1F5"/>
<path d="M275.697 148.367C289.954 160.624 311.447 159.003 323.704 144.746C335.961 130.49 334.34 108.997 320.083 96.7397C305.827 84.483 284.333 86.1041 272.077 100.361C259.82 114.617 261.441 136.11 275.697 148.367Z" fill="#CAE1F5"/>
<path d="M270.757 140.356C280.22 156.6 301.059 162.098 317.304 152.635C333.548 143.173 339.046 122.333 329.583 106.089C320.12 89.8444 299.281 84.3468 283.036 93.8094C266.792 103.272 261.294 124.112 270.757 140.356Z" fill="#CAE1F5"/>
<path d="M300.585 158.039C319.361 159.017 335.374 144.59 336.353 125.815C337.331 107.039 322.904 91.0256 304.129 90.0471C285.353 89.0686 269.34 103.496 268.361 122.271C267.383 141.047 281.81 157.06 300.585 158.039Z" fill="#CAE1F5"/>
<path d="M281.613 150.024C295.516 162.679 317.044 161.667 329.699 147.764C342.353 133.861 341.341 112.333 327.439 99.6784C313.536 87.024 292.007 88.0359 279.353 101.939C266.698 115.841 267.71 137.37 281.613 150.024Z" fill="#CAE1F5"/>
<path d="M341.655 324.548C356.664 335.87 378.009 332.882 389.332 317.873C400.654 302.864 397.665 281.518 382.656 270.196C367.648 258.874 346.302 261.862 334.98 276.871C323.657 291.88 326.646 313.226 341.655 324.548Z" fill="#CAE1F5"/>
<path d="M344.347 328.953C360.685 338.255 381.471 332.551 390.773 316.212C400.075 299.874 394.371 279.088 378.032 269.786C361.694 260.484 340.908 266.188 331.606 282.527C322.304 298.865 328.008 319.651 344.347 328.953Z" fill="#CAE1F5"/>
<path d="M330.511 318.002C339.726 334.388 360.479 340.202 376.866 330.988C393.252 321.774 399.067 301.02 389.852 284.633C380.638 268.247 359.884 262.433 343.498 271.647C327.111 280.861 321.297 301.615 330.511 318.002Z" fill="#CAE1F5"/>
<path d="M342.111 335.179C358.671 344.08 379.311 337.871 388.212 321.311C397.113 304.751 390.904 284.111 374.344 275.21C357.784 266.309 337.144 272.518 328.243 289.078C319.342 305.638 325.551 326.279 342.111 335.179Z" fill="#CAE1F5"/>
<path d="M334.41 335.198C348.908 347.166 370.364 345.116 382.333 330.617C394.301 316.119 392.25 294.663 377.752 282.694C363.253 270.726 341.798 272.777 329.829 287.275C317.861 301.774 319.911 323.229 334.41 335.198Z" fill="#CAE1F5"/>
<path d="M330.429 334.46C343.474 347.999 365.024 348.4 378.563 335.355C392.102 322.311 392.503 300.761 379.459 287.222C366.414 273.683 344.864 273.282 331.325 286.326C317.786 299.37 317.385 320.921 330.429 334.46Z" fill="#CAE1F5"/>
<path d="M335.338 346.252C351.898 355.153 372.538 348.944 381.439 332.384C390.34 315.824 384.131 295.183 367.571 286.282C351.011 277.382 330.37 283.591 321.469 300.151C312.569 316.711 318.778 337.351 335.338 346.252Z" fill="#CAE1F5"/>
<path d="M332.92 347.396C349.139 356.904 369.994 351.463 379.501 335.245C389.009 319.027 383.569 298.172 367.35 288.664C351.132 279.157 330.277 284.597 320.769 300.815C311.262 317.034 316.702 337.889 332.92 347.396Z" fill="#CAE1F5"/>
<path d="M353.513 353.555C372.134 350.962 385.126 333.765 382.533 315.144C379.939 296.524 362.742 283.531 344.122 286.125C325.501 288.718 312.509 305.915 315.102 324.536C317.695 343.156 334.893 356.149 353.513 353.555Z" fill="#CAE1F5"/>
<path d="M347.023 355.574C365.821 355.829 381.267 340.797 381.522 321.999C381.777 303.2 366.745 287.755 347.947 287.499C329.149 287.244 313.703 302.276 313.448 321.074C313.193 339.872 328.225 355.318 347.023 355.574Z" fill="#CAE1F5"/>
<path d="M356.735 355.634C374.594 349.757 384.307 330.516 378.43 312.657C372.553 294.798 353.312 285.085 335.453 290.962C317.594 296.839 307.881 316.081 313.758 333.939C319.635 351.798 338.877 361.511 356.735 355.634Z" fill="#CAE1F5"/>
<path d="M342.933 359.084C361.708 360.062 377.722 345.635 378.701 326.86C379.679 308.084 365.252 292.071 346.476 291.092C327.701 290.114 311.687 304.541 310.709 323.316C309.73 342.092 324.157 358.105 342.933 359.084Z" fill="#CAE1F5"/>
<path d="M319.53 351.165C333.04 364.237 354.59 363.882 367.663 350.371C380.735 336.861 380.38 315.311 366.869 302.238C353.359 289.166 331.809 289.521 318.736 303.032C305.664 316.542 306.019 338.092 319.53 351.165Z" fill="#CAE1F5"/>
<path d="M356.446 359.074C373.4 350.95 380.559 330.62 372.435 313.666C364.311 296.711 343.981 289.553 327.027 297.677C310.072 305.801 302.914 326.131 311.038 343.085C319.162 360.039 339.492 367.198 356.446 359.074Z" fill="#CAE1F5"/>
<path d="M317.339 355.192C331.242 367.847 352.771 366.835 365.425 352.932C378.08 339.029 377.068 317.501 363.165 304.846C349.262 292.192 327.734 293.204 315.079 307.106C302.425 321.009 303.437 342.538 317.339 355.192Z" fill="#CAE1F5"/>
<path d="M319.798 359.951C335.422 370.409 356.565 366.22 367.022 350.597C377.48 334.973 373.292 313.83 357.668 303.372C342.044 292.915 320.901 297.103 310.444 312.727C299.986 328.351 304.174 349.494 319.798 359.951Z" fill="#CAE1F5"/>
<path d="M330.695 366.628C349.149 370.218 367.019 358.168 370.608 339.715C374.198 321.261 362.149 303.391 343.695 299.801C325.241 296.211 307.371 308.261 303.781 326.714C300.191 345.168 312.241 363.038 330.695 366.628Z" fill="#CAE1F5"/>
<path d="M336.652 368.786C355.443 368.24 370.234 352.564 369.688 333.772C369.142 314.98 353.465 300.19 334.674 300.736C315.882 301.282 301.091 316.958 301.637 335.75C302.183 354.542 317.86 369.332 336.652 368.786Z" fill="#CAE1F5"/>
<path d="M304.417 353.181C313.702 369.527 334.481 375.252 350.827 365.967C367.173 356.681 372.898 335.903 363.613 319.557C354.328 303.21 333.549 297.486 317.203 306.771C300.857 316.056 295.132 336.834 304.417 353.181Z" fill="#CAE1F5"/>
<path d="M336.342 371.67C355.013 369.481 368.374 352.57 366.185 333.898C363.995 315.227 347.084 301.866 328.413 304.055C309.742 306.245 296.38 323.156 298.57 341.827C300.759 360.498 317.67 373.86 336.342 371.67Z" fill="#CAE1F5"/>
<path d="M311.822 367.607C327.445 378.065 348.588 373.877 359.046 358.253C369.503 342.629 365.315 321.486 349.692 311.029C334.068 300.571 312.925 304.759 302.467 320.383C292.01 336.007 296.198 357.15 311.822 367.607Z" fill="#CAE1F5"/>
<path d="M327.316 374.861C346.091 375.84 362.105 361.412 363.083 342.637C364.062 323.862 349.635 307.848 330.859 306.869C312.084 305.891 296.07 320.318 295.092 339.094C294.113 357.869 308.54 373.883 327.316 374.861Z" fill="#CAE1F5"/>
<path d="M309.872 371.405C325.974 381.109 346.895 375.923 356.6 359.821C366.304 343.718 361.118 322.798 345.015 313.093C328.913 303.389 307.992 308.575 298.288 324.677C288.583 340.78 293.77 361.7 309.872 371.405Z" fill="#CAE1F5"/>
<path d="M296.07 360.476C305.355 376.822 326.133 382.546 342.479 373.261C358.826 363.976 364.55 343.198 355.265 326.852C345.98 310.505 325.202 304.781 308.855 314.066C292.509 323.351 286.785 344.129 296.07 360.476Z" fill="#CAE1F5"/>
<path d="M296.846 365.684C308.223 380.65 329.578 383.561 344.545 372.184C359.511 360.807 362.421 339.452 351.044 324.486C339.668 309.519 318.313 306.609 303.346 317.986C288.38 329.362 285.47 350.718 296.846 365.684Z" fill="#CAE1F5"/>
<path d="M302.726 374.304C318.143 385.063 339.362 381.287 350.121 365.87C360.88 350.454 357.104 329.234 341.688 318.475C326.271 307.716 305.052 311.492 294.293 326.908C283.534 342.325 287.309 363.545 302.726 374.304Z" fill="#CAE1F5"/>
<path d="M312.325 380.806C330.583 385.296 349.023 374.135 353.513 355.878C358.003 337.621 346.842 319.18 328.585 314.69C310.328 310.2 291.888 321.361 287.398 339.618C282.908 357.876 294.068 376.316 312.325 380.806Z" fill="#CAE1F5"/>
<path d="M296.665 375.075C311.046 387.183 332.521 385.34 344.629 370.959C356.737 356.577 354.894 335.103 340.513 322.994C326.131 310.886 304.657 312.729 292.549 327.11C280.44 341.492 282.283 362.966 296.665 375.075Z" fill="#CAE1F5"/>
<path d="M315.566 384.321C334.355 384.972 350.114 370.268 350.765 351.479C351.416 332.69 336.712 316.931 317.923 316.28C299.134 315.629 283.375 330.333 282.724 349.122C282.073 367.911 296.777 383.67 315.566 384.321Z" fill="#CAE1F5"/>
<path d="M294.284 378.62C309.222 390.036 330.586 387.182 342.002 372.244C353.418 357.306 350.563 335.942 335.625 324.526C320.688 313.11 299.324 315.965 287.907 330.903C276.491 345.84 279.346 367.204 294.284 378.62Z" fill="#CAE1F5"/>
<path d="M290.136 378.055C304.039 390.71 325.568 389.698 338.222 375.795C350.876 361.893 349.865 340.364 335.962 327.71C322.059 315.055 300.531 316.067 287.876 329.97C275.222 343.872 276.234 365.401 290.136 378.055Z" fill="#CAE1F5"/>
<path d="M323.799 385.698C341.258 378.721 349.755 358.912 342.778 341.453C335.801 323.995 315.992 315.498 298.534 322.475C281.075 329.452 272.578 349.26 279.555 366.719C286.532 384.178 306.34 392.675 323.799 385.698Z" fill="#CAE1F5"/>
<path d="M281.844 375.351C292.968 390.506 314.272 393.775 329.428 382.651C344.584 371.527 347.852 350.223 336.728 335.067C325.604 319.911 304.3 316.643 289.144 327.767C273.988 338.891 270.72 360.195 281.844 375.351Z" fill="#CAE1F5"/>
<path d="M311.309 390.138C329.979 387.93 343.324 371.005 341.116 352.335C338.908 333.665 321.983 320.32 303.313 322.528C284.643 324.735 271.298 341.66 273.506 360.33C275.714 379 292.639 392.346 311.309 390.138Z" fill="#CAE1F5"/>
<path d="M277.238 376.664C287.818 392.205 308.993 396.226 324.533 385.647C340.074 375.067 344.095 353.892 333.516 338.352C322.936 322.811 301.761 318.789 286.221 329.369C270.68 339.949 266.659 361.123 277.238 376.664Z" fill="#CAE1F5"/>
<path d="M307.469 392.38C326.14 390.178 339.491 373.257 337.288 354.586C335.086 335.915 318.165 322.565 299.494 324.767C280.823 326.969 267.473 343.89 269.675 362.561C271.877 381.232 288.798 394.582 307.469 392.38Z" fill="#CAE1F5"/>
<path d="M291.689 392.326C309.696 397.731 328.674 387.515 334.078 369.508C339.482 351.502 329.266 332.524 311.26 327.119C293.253 321.715 274.275 331.931 268.871 349.938C263.467 367.944 273.683 386.922 291.689 392.326Z" fill="#CAE1F5"/>
<path d="M275.87 385.269C289.443 398.275 310.991 397.816 323.998 384.243C337.004 370.669 336.545 349.122 322.971 336.115C309.398 323.108 287.851 323.568 274.844 337.141C261.837 350.715 262.297 372.262 275.87 385.269Z" fill="#CAE1F5"/>
<path d="M287.705 394.317C305.711 399.721 324.689 389.505 330.094 371.498C335.498 353.492 325.282 334.514 307.275 329.11C289.269 323.705 270.291 333.921 264.887 351.928C259.482 369.934 269.698 388.912 287.705 394.317Z" fill="#CAE1F5"/>
<path d="M287.361 395.819C305.618 400.309 324.058 389.149 328.548 370.892C333.038 352.634 321.877 334.194 303.62 329.704C285.363 325.214 266.923 336.375 262.433 354.632C257.943 372.889 269.103 391.329 287.361 395.819Z" fill="#CAE1F5"/>
<path d="M272.428 390.498C287.241 402.075 308.634 399.452 320.212 384.639C331.789 369.825 329.166 348.432 314.353 336.855C299.54 325.278 278.146 327.901 266.569 342.714C254.992 357.527 257.615 378.92 272.428 390.498Z" fill="#CAE1F5"/>
<path d="M295.383 398.435C314.054 396.233 327.405 379.312 325.203 360.641C323 341.97 306.079 328.619 287.408 330.821C268.737 333.023 255.387 349.944 257.589 368.615C259.791 387.286 276.712 400.637 295.383 398.435Z" fill="#CAE1F5"/>
<path d="M272.466 395.117C288.789 404.447 309.585 398.777 318.914 382.454C328.244 366.131 322.574 345.335 306.251 336.006C289.928 326.676 269.132 332.346 259.803 348.669C250.473 364.992 256.143 385.788 272.466 395.117Z" fill="#CAE1F5"/>
<path d="M301.927 397.148C318.881 389.024 326.039 368.694 317.915 351.74C309.791 334.786 289.461 327.627 272.507 335.751C255.553 343.875 248.394 364.205 256.518 381.159C264.642 398.114 284.972 405.272 301.927 397.148Z" fill="#CAE1F5"/>
<path d="M275.31 399.864C293.317 405.268 312.295 395.052 317.699 377.045C323.103 359.039 312.887 340.061 294.881 334.656C276.874 329.252 257.896 339.468 252.492 357.475C247.088 375.481 257.304 394.459 275.31 399.864Z" fill="#CAE1F5"/>
<path d="M277.268 401.607C295.799 404.773 313.388 392.318 316.554 373.787C319.72 355.256 307.264 337.667 288.733 334.5C270.202 331.334 252.613 343.79 249.447 362.321C246.281 380.852 258.736 398.441 277.268 401.607Z" fill="#CAE1F5"/>
<path d="M295.222 399.781C312.263 391.842 319.642 371.592 311.703 354.551C303.765 337.51 283.514 330.131 266.473 338.069C249.432 346.008 242.053 366.258 249.991 383.299C257.93 400.341 278.18 407.72 295.222 399.781Z" fill="#CAE1F5"/>
<path d="M292.369 400.851C309.596 393.32 317.456 373.25 309.925 356.024C302.394 338.797 282.325 330.937 265.098 338.468C247.871 345.999 240.011 366.068 247.542 383.295C255.073 400.522 275.143 408.382 292.369 400.851Z" fill="#CAE1F5"/>
<path d="M262.989 401.516C280.214 409.049 300.284 401.193 307.817 383.968C315.351 366.744 307.494 346.674 290.27 339.14C273.045 331.607 252.975 339.463 245.442 356.688C237.909 373.912 245.765 393.982 262.989 401.516Z" fill="#CAE1F5"/>
<path d="M289.445 401.703C306.335 393.448 313.335 373.064 305.081 356.173C296.826 339.283 276.442 332.283 259.551 340.538C242.661 348.792 235.661 369.177 243.915 386.067C252.17 402.957 272.555 409.958 289.445 401.703Z" fill="#CAE1F5"/>
<path d="M244.121 390.914C254.701 406.455 275.875 410.476 291.416 399.896C306.957 389.317 310.978 368.142 300.398 352.602C289.819 337.061 268.644 333.039 253.103 343.619C237.563 354.199 233.541 375.373 244.121 390.914Z" fill="#CAE1F5"/>
<path d="M240.377 388.996C249.524 405.421 270.254 411.322 286.679 402.175C303.104 393.029 309.005 372.299 299.858 355.873C290.712 339.448 269.982 333.548 253.556 342.694C237.131 351.841 231.231 372.571 240.377 388.996Z" fill="#CAE1F5"/>
<path d="M281.334 404.358C298.607 396.936 306.593 376.918 299.171 359.645C291.75 342.372 271.731 334.387 254.458 341.808C237.186 349.23 229.2 369.248 236.622 386.521C244.043 403.794 264.062 411.779 281.334 404.358Z" fill="#CAE1F5"/>
<path d="M276.384 406.023C294.242 400.146 303.955 380.904 298.078 363.046C292.201 345.187 272.96 335.474 255.101 341.351C237.243 347.228 227.53 366.469 233.407 384.328C239.284 402.187 258.525 411.9 276.384 406.023Z" fill="#CAE1F5"/>
<path d="M239.008 397.822C252.048 411.363 273.596 411.771 287.138 398.731C300.68 385.692 301.087 364.143 288.048 350.602C275.008 337.06 253.46 336.653 239.918 349.692C226.376 362.731 225.969 384.28 239.008 397.822Z" fill="#CAE1F5"/>
<path d="M275.706 405.644C292.747 397.706 300.126 377.455 292.188 360.414C284.249 343.373 263.999 335.994 246.957 343.932C229.916 351.871 222.537 372.121 230.476 389.163C238.414 406.204 258.665 413.583 275.706 405.644Z" fill="#CAE1F5"/>
<path d="M251.033 408.294C269.29 412.784 287.73 401.623 292.22 383.366C296.71 365.109 285.549 346.669 267.292 342.179C249.035 337.689 230.595 348.849 226.105 367.107C221.615 385.364 232.775 403.804 251.033 408.294Z" fill="#CAE1F5"/>
<path d="M229.572 396.052C240.766 411.157 262.085 414.329 277.191 403.136C292.296 391.942 295.468 370.623 284.275 355.517C273.082 340.412 251.762 337.24 236.657 348.433C221.551 359.626 218.379 380.946 229.572 396.052Z" fill="#CAE1F5"/>
<path d="M268.184 407.47C285.455 400.042 293.434 380.019 286.006 362.748C278.578 345.477 258.555 337.497 241.284 344.925C224.013 352.353 216.033 372.376 223.462 389.647C230.89 406.919 250.912 414.898 268.184 407.47Z" fill="#CAE1F5"/>
<path d="M267.184 407.275C284.139 399.151 291.297 378.821 283.173 361.867C275.049 344.912 254.719 337.754 237.765 345.878C220.811 354.002 213.652 374.332 221.776 391.286C229.9 408.241 250.23 415.399 267.184 407.275Z" fill="#CAE1F5"/>
<path d="M260.845 409.31C278.703 403.433 288.416 384.191 282.539 366.333C276.662 348.474 257.421 338.761 239.562 344.638C221.704 350.515 211.991 369.757 217.868 387.615C223.745 405.474 242.986 415.187 260.845 409.31Z" fill="#CAE1F5"/>
<path d="M238.134 409.963C256.141 415.367 275.119 405.151 280.523 387.145C285.928 369.138 275.712 350.16 257.705 344.756C239.699 339.352 220.721 349.568 215.316 367.574C209.912 385.581 220.128 404.559 238.134 409.963Z" fill="#CAE1F5"/>
<path d="M255.051 410.417C273.133 405.27 283.619 386.438 278.471 368.356C273.323 350.273 254.492 339.787 236.409 344.935C218.327 350.083 207.841 368.915 212.989 386.997C218.136 405.08 236.968 415.565 255.051 410.417Z" fill="#CAE1F5"/>
<path d="M214.801 396.384C224.962 412.201 246.021 416.787 261.839 406.627C277.656 396.466 282.242 375.407 272.081 359.589C261.92 343.772 240.861 339.186 225.044 349.347C209.226 359.507 204.641 380.567 214.801 396.384Z" fill="#CAE1F5"/>
<path d="M222.155 406.401C237.732 416.926 258.892 412.831 269.418 397.254C279.943 381.677 275.848 360.517 260.271 349.991C244.694 339.466 223.534 343.561 213.009 359.138C202.483 374.715 206.578 395.875 222.155 406.401Z" fill="#CAE1F5"/>
<path d="M252.576 409.623C269.807 402.104 277.68 382.04 270.161 364.809C262.642 347.578 242.579 339.705 225.348 347.224C208.117 354.743 200.244 374.806 207.763 392.037C215.281 409.268 235.345 417.141 252.576 409.623Z" fill="#CAE1F5"/>
<path d="M208.074 397.162C218.296 412.94 239.373 417.444 255.151 407.222C270.929 397 275.433 375.923 265.212 360.145C254.99 344.367 233.913 339.863 218.135 350.085C202.357 360.307 197.852 381.384 208.074 397.162Z" fill="#CAE1F5"/>
<path d="M211.59 404.069C225.544 416.668 247.069 415.569 259.668 401.615C272.267 387.662 271.169 366.136 257.215 353.537C243.261 340.938 221.736 342.036 209.137 355.99C196.538 369.944 197.636 391.47 211.59 404.069Z" fill="#CAE1F5"/>
<path d="M205.071 399.526C216.442 414.498 237.797 417.417 252.768 406.046C267.74 394.675 270.659 373.32 259.288 358.349C247.917 343.377 226.562 340.458 211.591 351.829C196.619 363.2 193.7 384.555 205.071 399.526Z" fill="#CAE1F5"/>
<path d="M206.937 404.169C220.84 416.823 242.368 415.811 255.023 401.909C267.677 388.006 266.665 366.477 252.763 353.823C238.86 341.169 217.331 342.18 204.677 356.083C192.023 369.986 193.035 391.514 206.937 404.169Z" fill="#CAE1F5"/>
<path d="M205.994 405.411C220.494 417.379 241.951 415.326 253.918 400.826C265.886 386.326 263.833 364.869 249.333 352.902C234.833 340.934 213.376 342.987 201.409 357.487C189.441 371.987 191.494 393.444 205.994 405.411Z" fill="#CAE1F5"/>
<path d="M229.986 412.895C248.606 410.302 261.599 393.105 259.005 374.484C256.412 355.864 239.215 342.871 220.594 345.464C201.974 348.058 188.981 365.255 191.575 383.876C194.168 402.496 211.365 415.489 229.986 412.895Z" fill="#CAE1F5"/>
<path d="M209.984 410.686C227.35 417.887 247.265 409.646 254.466 392.281C261.667 374.915 253.427 354.999 236.061 347.798C218.695 340.597 198.78 348.838 191.579 366.203C184.378 383.569 192.618 403.485 209.984 410.686Z" fill="#CAE1F5"/>
<path d="M218.72 413.177C237.486 414.321 253.626 400.035 254.77 381.269C255.914 362.503 241.628 346.363 222.862 345.219C204.096 344.076 187.956 358.361 186.812 377.127C185.668 395.894 199.954 412.034 218.72 413.177Z" fill="#CAE1F5"/>
<path d="M216.463 413.119C235.229 414.262 251.369 399.976 252.512 381.21C253.656 362.444 239.37 346.304 220.604 345.161C201.838 344.017 185.698 358.303 184.554 377.069C183.411 395.835 197.696 411.975 216.463 413.119Z" fill="#CAE1F5"/>
<path d="M215.738 413.062C234.536 413.317 249.982 398.285 250.237 379.487C250.492 360.689 235.46 345.243 216.662 344.988C197.864 344.732 182.418 359.764 182.163 378.562C181.908 397.361 196.94 412.807 215.738 413.062Z" fill="#CAE1F5"/>
<path d="M214.191 413.005C232.991 412.898 248.145 397.572 248.039 378.772C247.932 359.972 232.606 344.818 213.806 344.924C195.006 345.031 179.852 360.357 179.958 379.157C180.065 397.957 195.392 413.111 214.191 413.005Z" fill="#CAE1F5"/>
<path d="M212.673 412.858C231.467 412.355 246.295 396.712 245.792 377.919C245.29 359.125 229.647 344.297 210.853 344.799C192.06 345.302 177.232 360.944 177.734 379.738C178.237 398.532 193.879 413.36 212.673 412.858Z" fill="#CAE1F5"/>
<path d="M222.104 410.241C239.562 403.264 248.06 383.455 241.083 365.996C234.106 348.538 214.297 340.041 196.838 347.018C179.38 353.995 170.882 373.803 177.859 391.262C184.836 408.721 204.645 417.218 222.104 410.241Z" fill="#CAE1F5"/>
<path d="M183.168 402.457C196.483 415.729 218.035 415.694 231.307 402.379C244.579 389.064 244.544 367.512 231.23 354.24C217.915 340.968 196.362 341.003 183.09 354.318C169.818 367.632 169.853 389.185 183.168 402.457Z" fill="#CAE1F5"/>
<path d="M217.37 409.867C234.866 402.987 243.472 383.227 236.593 365.731C229.713 348.235 209.953 339.629 192.457 346.508C174.961 353.388 166.354 373.148 173.234 390.644C180.114 408.14 199.874 416.747 217.37 409.867Z" fill="#CAE1F5"/>
<path d="M200.945 411.914C219.72 412.892 235.734 398.465 236.712 379.69C237.691 360.914 223.264 344.901 204.488 343.922C185.713 342.944 169.699 357.371 168.72 376.146C167.742 394.922 182.169 410.935 200.945 411.914Z" fill="#CAE1F5"/>
<path d="M173.404 398.193C184.805 413.142 206.166 416.018 221.115 404.616C236.064 393.215 238.94 371.854 227.538 356.905C216.137 341.956 194.776 339.08 179.827 350.482C164.878 361.883 162.003 383.244 173.404 398.193Z" fill="#CAE1F5"/>
<path d="M173.986 401.185C187.209 414.549 208.762 414.662 222.126 401.439C235.49 388.216 235.604 366.663 222.38 353.299C209.157 339.935 187.604 339.821 174.24 353.045C160.876 366.268 160.763 387.821 173.986 401.185Z" fill="#CAE1F5"/>
<path d="M199.988 410.677C218.659 408.475 232.01 391.554 229.808 372.883C227.606 354.212 210.685 340.861 192.014 343.064C173.343 345.266 159.992 362.187 162.194 380.858C164.396 399.529 181.317 412.879 199.988 410.677Z" fill="#CAE1F5"/>
<path d="M163.805 392.547C172.716 409.101 193.36 415.296 209.914 406.385C226.468 397.474 232.663 376.831 223.752 360.276C214.841 343.722 194.197 337.527 177.643 346.438C161.089 355.349 154.894 375.993 163.805 392.547Z" fill="#CAE1F5"/>
<path d="M178.182 407.324C195.485 414.674 215.47 406.606 222.82 389.302C230.17 371.999 222.102 352.014 204.799 344.664C187.496 337.314 167.51 345.382 160.16 362.685C152.81 379.989 160.879 399.974 178.182 407.324Z" fill="#CAE1F5"/>
<path d="M185.669 409.38C204.362 411.394 221.147 397.874 223.161 379.181C225.175 360.489 211.655 343.703 192.963 341.69C174.27 339.676 157.485 353.196 155.471 371.888C153.457 390.581 166.977 407.366 185.669 409.38Z" fill="#CAE1F5"/>
<path d="M177.365 407.623C195.371 413.028 214.35 402.812 219.754 384.805C225.158 366.799 214.942 347.82 196.936 342.416C178.929 337.012 159.951 347.228 154.547 365.234C149.142 383.241 159.358 402.219 177.365 407.623Z" fill="#CAE1F5"/>
<path d="M188.616 408.319C207.305 406.286 220.808 389.487 218.776 370.798C216.743 352.108 199.944 338.605 181.255 340.638C162.565 342.67 149.062 359.469 151.095 378.159C153.127 396.848 169.926 410.351 188.616 408.319Z" fill="#CAE1F5"/>
<path d="M159.855 399.065C173.758 411.72 195.286 410.708 207.941 396.805C220.595 382.903 219.583 361.374 205.681 348.719C191.778 336.065 170.249 337.077 157.595 350.98C144.941 364.882 145.953 386.411 159.855 399.065Z" fill="#CAE1F5"/>
<path d="M184.543 407.134C203.214 404.932 216.565 388.011 214.363 369.34C212.161 350.669 195.24 337.318 176.569 339.521C157.898 341.723 144.547 358.644 146.749 377.315C148.951 395.986 165.872 409.336 184.543 407.134Z" fill="#CAE1F5"/>
<path d="M180.985 406.545C199.729 405.094 213.747 388.722 212.296 369.978C210.844 351.234 194.472 337.215 175.728 338.667C156.984 340.118 142.966 356.49 144.417 375.234C145.869 393.978 162.24 407.997 180.985 406.545Z" fill="#CAE1F5"/>
<path d="M151.014 394.868C163.665 408.775 185.195 409.793 199.101 397.142C213.008 384.492 214.026 362.962 201.375 349.055C188.724 335.149 167.195 334.131 153.288 346.782C139.381 359.432 138.363 380.962 151.014 394.868Z" fill="#CAE1F5"/>
<path d="M188.774 401.951C205.729 393.827 212.887 373.497 204.763 356.543C196.639 339.588 176.309 332.43 159.355 340.554C142.4 348.678 135.242 369.008 143.366 385.962C151.49 402.916 171.82 410.075 188.774 401.951Z" fill="#CAE1F5"/>
<path d="M155.374 400.234C171.798 409.382 192.53 403.484 201.679 387.06C210.828 370.635 204.929 349.904 188.505 340.755C172.08 331.606 151.349 337.504 142.2 353.929C133.051 370.353 138.949 391.085 155.374 400.234Z" fill="#CAE1F5"/>
<path d="M173.774 403.548C192.445 401.346 205.795 384.425 203.593 365.754C201.391 347.083 184.47 333.733 165.799 335.935C147.128 338.137 133.777 355.058 135.979 373.729C138.182 392.4 155.103 405.75 173.774 403.548Z" fill="#CAE1F5"/>
<path d="M171.672 402.701C190.343 400.499 203.694 383.578 201.492 364.907C199.289 346.236 182.368 332.885 163.697 335.087C145.026 337.289 131.676 354.21 133.878 372.881C136.08 391.552 153.001 404.903 171.672 402.701Z" fill="#CAE1F5"/>
<path d="M161.126 401.818C179.762 404.302 196.883 391.209 199.367 372.573C201.851 353.937 188.758 336.816 170.122 334.332C151.486 331.848 134.365 344.941 131.881 363.577C129.397 382.213 142.49 399.334 161.126 401.818Z" fill="#CAE1F5"/>
<path d="M164.279 401.205C183.073 400.771 197.956 385.183 197.522 366.389C197.088 347.594 181.5 332.711 162.706 333.145C143.911 333.58 129.028 349.167 129.462 367.962C129.897 386.756 145.484 401.639 164.279 401.205Z" fill="#CAE1F5"/>
<path d="M138.385 391.263C152.2 404.014 173.736 403.15 186.487 389.335C199.237 375.519 198.374 353.983 184.558 341.233C170.743 328.483 149.207 329.346 136.456 343.162C123.706 356.977 124.569 378.513 138.385 391.263Z" fill="#CAE1F5"/>
<path d="M168.294 398.126C186.427 393.163 197.102 374.44 192.139 356.307C187.176 338.175 168.453 327.499 150.32 332.462C132.188 337.426 121.512 356.149 126.475 374.281C131.439 392.414 150.161 403.09 168.294 398.126Z" fill="#CAE1F5"/>
<path d="M138.249 392.536C153.826 403.061 174.986 398.966 185.512 383.389C196.037 367.812 191.942 346.652 176.365 336.126C160.788 325.601 139.628 329.696 129.102 345.273C118.577 360.85 122.672 382.01 138.249 392.536Z" fill="#CAE1F5"/>
<path d="M135.824 391.185C151.24 401.944 172.46 398.168 183.219 382.751C193.978 367.334 190.202 346.115 174.785 335.356C159.369 324.597 138.149 328.373 127.39 343.789C116.631 359.206 120.407 380.426 135.824 391.185Z" fill="#CAE1F5"/>
<path d="M130.382 387.391C144.285 400.046 165.814 399.034 178.468 385.131C191.123 371.229 190.111 349.7 176.208 337.046C162.305 324.391 140.777 325.403 128.122 339.306C115.468 353.208 116.48 374.737 130.382 387.391Z" fill="#CAE1F5"/>
<path d="M162.748 393.169C180.447 386.83 189.655 367.342 183.316 349.643C176.976 331.944 157.488 322.736 139.789 329.075C122.09 335.415 112.882 354.903 119.221 372.602C125.561 390.301 145.049 399.509 162.748 393.169Z" fill="#CAE1F5"/>
<path d="M153.955 393.698C172.575 391.105 185.568 373.907 182.974 355.287C180.381 336.666 163.184 323.674 144.563 326.267C125.943 328.861 112.95 346.058 115.543 364.678C118.137 383.299 135.334 396.291 153.955 393.698Z" fill="#CAE1F5"/>
<path d="M160.786 390.078C178.045 382.624 185.992 362.589 178.538 345.33C171.083 328.071 151.048 320.123 133.789 327.578C116.53 335.033 108.582 355.067 116.037 372.326C123.492 389.585 143.527 397.533 160.786 390.078Z" fill="#CAE1F5"/>
<path d="M156.017 390.021C173.875 384.144 183.588 364.902 177.711 347.044C171.834 329.185 152.593 319.472 134.734 325.349C116.876 331.226 107.163 350.467 113.04 368.326C118.917 386.185 138.158 395.898 156.017 390.021Z" fill="#CAE1F5"/>
<path d="M135.341 389.519C153.598 394.009 172.039 382.848 176.529 364.591C181.019 346.333 169.858 327.893 151.601 323.403C133.343 318.913 114.903 330.074 110.413 348.331C105.923 366.588 117.084 385.029 135.341 389.519Z" fill="#CAE1F5"/>
<path d="M152.833 387.31C170.566 381.065 179.879 361.627 173.634 343.894C167.389 326.161 147.951 316.848 130.218 323.093C112.485 329.338 103.172 348.776 109.417 366.509C115.662 384.242 135.1 393.555 152.833 387.31Z" fill="#CAE1F5"/>
<path d="M148.477 386.764C166.627 381.861 177.367 363.173 172.465 345.023C167.562 326.873 148.874 316.133 130.724 321.035C112.573 325.938 101.834 344.626 106.736 362.776C111.639 380.927 130.327 391.666 148.477 386.764Z" fill="#CAE1F5"/>
<path d="M118.296 380.521C133.713 391.28 154.933 387.504 165.692 372.087C176.451 356.67 172.675 335.451 157.258 324.692C141.841 313.933 120.622 317.709 109.863 333.125C99.1039 348.542 102.88 369.762 118.296 380.521Z" fill="#CAE1F5"/>
<path d="M107.784 370.54C118.397 386.059 139.58 390.036 155.099 379.423C170.617 368.811 174.594 347.627 163.982 332.109C153.369 316.59 132.185 312.613 116.667 323.226C101.148 333.838 97.1712 355.022 107.784 370.54Z" fill="#CAE1F5"/>
<path d="M138.783 383.649C157.403 381.056 170.396 363.858 167.802 345.238C165.209 326.617 148.012 313.625 129.391 316.218C110.771 318.812 97.7781 336.009 100.372 354.629C102.965 373.25 120.162 386.242 138.783 383.649Z" fill="#CAE1F5"/>
<path d="M144.749 380.361C162.245 373.482 170.851 353.721 163.972 336.225C157.092 318.729 137.332 310.123 119.836 317.002C102.34 323.882 93.7333 343.642 100.613 361.138C107.492 378.634 127.253 387.241 144.749 380.361Z" fill="#CAE1F5"/>
<path d="M124.124 380.646C142.591 384.165 160.414 372.047 163.933 353.58C167.452 335.114 155.334 317.291 136.867 313.772C118.4 310.253 100.577 322.371 97.0583 340.838C93.5394 359.304 105.657 377.127 124.124 380.646Z" fill="#CAE1F5"/>
<path d="M137.739 378.683C155.872 373.72 166.548 354.997 161.584 336.864C156.621 318.731 137.898 308.056 119.766 313.019C101.633 317.982 90.9572 336.705 95.9205 354.838C100.884 372.97 119.607 383.646 137.739 378.683Z" fill="#CAE1F5"/>
<path d="M139.616 376.065C157.074 369.088 165.571 349.279 158.594 331.821C151.617 314.362 131.809 305.865 114.35 312.842C96.8913 319.819 88.3942 339.628 95.3711 357.086C102.348 374.545 122.157 383.042 139.616 376.065Z" fill="#CAE1F5"/>
<path d="M128.62 376.859C147.329 375.009 160.994 358.342 159.144 339.633C157.293 320.925 140.626 307.259 121.918 309.11C103.209 310.961 89.5433 327.627 91.3941 346.336C93.2449 365.044 109.912 378.71 128.62 376.859Z" fill="#CAE1F5"/>
<path d="M127.542 375.38C146.209 373.15 159.533 356.21 157.304 337.543C155.074 318.876 138.134 305.551 119.467 307.781C100.8 310.011 87.4755 326.951 89.7053 345.618C91.935 364.284 108.875 377.609 127.542 375.38Z" fill="#CAE1F5"/>
<path d="M126.572 373.788C145.192 371.194 158.185 353.997 155.591 335.377C152.998 316.756 135.801 303.764 117.18 306.357C98.5597 308.95 85.5672 326.148 88.1606 344.768C90.754 363.389 107.951 376.381 126.572 373.788Z" fill="#CAE1F5"/>
<path d="M91.6471 357.198C101.9 372.958 122.987 377.421 138.746 367.169C154.505 356.916 158.969 335.829 148.717 320.07C138.464 304.311 117.377 299.847 101.618 310.099C85.8583 320.352 81.3944 341.439 91.6471 357.198Z" fill="#CAE1F5"/>
<path d="M116.726 371.117C135.501 372.096 151.515 357.668 152.494 338.893C153.472 320.117 139.045 304.104 120.269 303.125C101.494 302.147 85.4802 316.574 84.5017 335.349C83.5232 354.125 97.9505 370.139 116.726 371.117Z" fill="#CAE1F5"/>
<path d="M117.012 369.675C135.812 369.568 150.966 354.242 150.859 335.442C150.753 316.642 135.426 301.488 116.626 301.594C97.8262 301.701 82.6723 317.027 82.7787 335.827C82.8852 354.627 98.2118 369.781 117.012 369.675Z" fill="#CAE1F5"/>
<path d="M128.059 365.537C145.459 358.419 153.794 338.544 146.676 321.144C139.558 303.744 119.682 295.409 102.282 302.528C84.8826 309.646 76.5477 329.521 83.6658 346.921C90.7839 364.321 110.66 372.656 128.059 365.537Z" fill="#CAE1F5"/>
<path d="M97.041 362.244C113.476 371.372 134.199 365.449 143.327 349.014C152.456 332.579 146.533 311.856 130.098 302.728C113.663 293.599 92.9398 299.522 83.8114 315.957C74.683 332.392 80.6061 353.115 97.041 362.244Z" fill="#CAE1F5"/>
<path d="M102.193 363.528C120.199 368.932 139.178 358.716 144.582 340.709C149.986 322.703 139.77 303.725 121.764 298.32C103.757 292.916 84.7791 303.132 79.3748 321.139C73.9705 339.145 84.1866 358.123 102.193 363.528Z" fill="#CAE1F5"/>
<path d="M113.516 363.26C132.239 361.551 146.031 344.987 144.322 326.264C142.613 307.542 126.049 293.749 107.327 295.458C88.6037 297.167 74.8113 313.731 76.5203 332.454C78.2294 351.176 94.7928 364.969 113.516 363.26Z" fill="#CAE1F5"/>
<path d="M92.6775 357.711C109.238 366.612 129.878 360.403 138.779 343.843C147.679 327.282 141.47 306.642 124.91 297.741C108.35 288.841 87.7102 295.05 78.8093 311.61C69.9085 328.17 76.1175 348.81 92.6775 357.711Z" fill="#CAE1F5"/>
<path d="M99.0989 359.265C117.356 363.755 135.796 352.594 140.286 334.337C144.776 316.08 133.616 297.639 115.358 293.149C97.1012 288.659 78.6609 299.82 74.171 318.077C69.681 336.335 80.8416 354.775 99.0989 359.265Z" fill="#CAE1F5"/>
<path d="M98.8203 357.913C117.234 361.706 135.236 349.854 139.029 331.44C142.822 313.026 130.97 295.024 112.556 291.231C94.1421 287.438 76.14 299.291 72.3471 317.704C68.5541 336.118 80.4065 354.12 98.8203 357.913Z" fill="#CAE1F5"/>
<path d="M89.6139 353.722C106.63 361.713 126.903 354.397 134.894 337.381C142.885 320.364 135.569 300.092 118.553 292.1C101.537 284.109 81.264 291.425 73.2727 308.442C65.2814 325.458 72.5976 345.73 89.6139 353.722Z" fill="#CAE1F5"/>
<path d="M109.257 354.705C127.692 351.022 139.651 333.092 135.968 314.656C132.285 296.221 114.355 284.262 95.9193 287.945C77.4839 291.628 65.5247 309.558 69.2077 327.993C72.8907 346.429 90.8212 358.388 109.257 354.705Z" fill="#CAE1F5"/>
<path d="M73.8237 340.024C85.1016 355.065 106.437 358.115 121.478 346.838C136.519 335.56 139.569 314.224 128.292 299.183C117.014 284.142 95.678 281.092 80.6372 292.37C65.5963 303.648 62.5458 324.983 73.8237 340.024Z" fill="#CAE1F5"/>
<path d="M106.166 351.374C124.604 347.701 136.573 329.775 132.899 311.337C129.225 292.899 111.3 280.93 92.8618 284.604C74.4237 288.278 62.4548 306.203 66.1286 324.641C69.8024 343.079 87.7277 355.048 106.166 351.374Z" fill="#CAE1F5"/>
<path d="M98.5742 350.319C117.372 350.026 132.373 334.549 132.079 315.752C131.786 296.954 116.31 281.953 97.5126 282.247C78.715 282.54 63.7142 298.016 64.0074 316.813C64.3005 335.611 79.7766 350.612 98.5742 350.319Z" fill="#CAE1F5"/>
<path d="M86.736 347.211C104.742 352.615 123.721 342.399 129.125 324.393C134.529 306.387 124.313 287.408 106.307 282.004C88.3002 276.6 69.3221 286.816 63.9178 304.822C58.5135 322.829 68.7296 341.807 86.736 347.211Z" fill="#CAE1F5"/>
<path d="M73.8585 339.56C88.5775 351.256 109.991 348.805 121.687 334.086C133.383 319.367 130.933 297.954 116.214 286.258C101.495 274.562 80.081 277.012 68.3849 291.731C56.6888 306.45 59.1394 327.864 73.8585 339.56Z" fill="#CAE1F5"/>
<path d="M86.2459 344.504C104.614 348.513 122.755 336.873 126.764 318.505C130.774 300.137 119.134 281.996 100.766 277.987C82.3981 273.977 64.2573 285.617 60.2476 303.985C56.238 322.353 67.8778 340.494 86.2459 344.504Z" fill="#CAE1F5"/>
<path d="M75.9978 339.549C92.5579 348.449 113.198 342.24 122.099 325.68C131 309.12 124.791 288.48 108.231 279.579C91.6707 270.678 71.0305 276.887 62.1296 293.448C53.2288 310.008 59.4378 330.648 75.9978 339.549Z" fill="#CAE1F5"/>
<path d="M72.4198 336.654C88.3144 346.694 109.339 341.948 119.38 326.054C129.42 310.159 124.674 289.135 108.78 279.094C92.8851 269.054 71.8605 273.799 61.82 289.694C51.7795 305.588 56.5252 326.613 72.4198 336.654Z" fill="#CAE1F5"/>
<path d="M82.2544 339.42C100.665 343.224 118.673 331.382 122.476 312.971C126.279 294.561 114.438 276.553 96.0269 272.75C77.6162 268.946 59.6083 280.788 55.8052 299.199C52.002 317.609 63.8437 335.617 82.2544 339.42Z" fill="#CAE1F5"/>
<path d="M87.9926 338.444C106.791 338.268 121.888 322.886 121.711 304.087C121.535 285.288 106.153 270.192 87.3543 270.368C68.5557 270.545 53.4593 285.927 53.6356 304.725C53.8118 323.524 69.194 338.62 87.9926 338.444Z" fill="#CAE1F5"/>
<path d="M60.6625 325.125C73.0767 339.243 94.5849 340.623 108.702 328.209C122.82 315.795 124.201 294.287 111.786 280.169C99.3723 266.052 77.8641 264.671 63.7466 277.085C49.6291 289.499 48.2483 311.008 60.6625 325.125Z" fill="#CAE1F5"/>
<path d="M89.478 334.592C108.099 331.999 121.091 314.802 118.498 296.181C115.904 277.561 98.707 264.568 80.0865 267.162C61.466 269.755 48.4735 286.952 51.0669 305.573C53.6603 324.193 70.8575 337.186 89.478 334.592Z" fill="#CAE1F5"/>
<path d="M81.5774 333.228C100.353 334.207 116.367 319.78 117.345 301.004C118.324 282.229 103.896 266.215 85.1209 265.237C66.3455 264.258 50.3318 278.685 49.3533 297.461C48.3748 316.236 62.802 332.25 81.5774 333.228Z" fill="#CAE1F5"/>
<path d="M59.422 323.021C73.5483 335.425 95.0552 334.028 107.459 319.902C119.863 305.776 118.466 284.269 104.34 271.865C90.2134 259.461 68.7065 260.858 56.3028 274.984C43.8991 289.111 45.2956 310.617 59.422 323.021Z" fill="#CAE1F5"/>
<path d="M87.1237 329.064C105.559 325.381 117.518 307.451 113.835 289.016C110.152 270.58 92.2218 258.621 73.7864 262.304C55.3511 265.987 43.3919 283.917 47.0749 302.353C50.7579 320.788 68.6884 332.747 87.1237 329.064Z" fill="#CAE1F5"/>
<path d="M62.947 323.939C79.5071 332.84 100.147 326.631 109.048 310.071C117.949 293.511 111.74 272.871 95.18 263.97C78.6199 255.069 57.9797 261.278 49.0789 277.838C40.178 294.398 46.387 315.038 62.947 323.939Z" fill="#CAE1F5"/>
<path d="M61.5252 322.187C78.0852 331.088 98.7254 324.879 107.626 308.319C116.527 291.759 110.318 271.119 93.7581 262.218C77.198 253.317 56.5579 259.526 47.657 276.086C38.7561 292.646 44.9651 313.286 61.5252 322.187Z" fill="#CAE1F5"/>
<path d="M61.1619 320.968C78.0477 329.232 98.4359 322.243 106.7 305.358C114.965 288.472 107.976 268.084 91.0899 259.819C74.2042 251.555 53.816 258.544 45.5516 275.43C37.2872 292.315 44.2762 312.704 61.1619 320.968Z" fill="#CAE1F5"/>
<path d="M89.1004 319.572C106.142 311.633 113.521 291.383 105.582 274.342C97.6435 257.301 77.3933 249.922 60.352 257.86C43.3108 265.799 35.9316 286.049 43.8703 303.09C51.8089 320.132 72.0592 327.511 89.1004 319.572Z" fill="#CAE1F5"/>
<path d="M74.255 321.06C93.0496 320.583 107.899 304.96 107.421 286.166C106.944 267.371 91.3212 252.522 72.5267 252.999C53.7321 253.476 38.883 269.099 39.3603 287.894C39.8375 306.688 55.4604 321.538 74.255 321.06Z" fill="#CAE1F5"/>
<path d="M70.1673 319.334C88.9427 320.312 104.956 305.885 105.935 287.11C106.913 268.334 92.4862 252.321 73.7108 251.342C54.9353 250.364 38.9216 264.791 37.9431 283.566C36.9646 302.342 51.3919 318.355 70.1673 319.334Z" fill="#CAE1F5"/>
<path d="M48.1095 309.185C62.2358 321.589 83.7427 320.192 96.1464 306.066C108.55 291.94 107.154 270.433 93.0272 258.029C78.9009 245.625 57.394 247.022 44.9903 261.148C32.5866 275.275 33.9831 296.782 48.1095 309.185Z" fill="#CAE1F5"/>
<path d="M73.1134 315.753C91.7844 313.551 105.135 296.63 102.933 277.959C100.731 259.288 83.8099 245.938 65.1389 248.14C46.4679 250.342 33.1172 267.263 35.3193 285.934C37.5214 304.605 54.4424 317.956 73.1134 315.753Z" fill="#CAE1F5"/>
<path d="M59.5364 313.29C77.7937 317.78 96.234 306.62 100.724 288.362C105.214 270.105 94.0533 251.665 75.796 247.175C57.5387 242.685 39.0984 253.845 34.6085 272.103C30.1185 290.36 41.2791 308.8 59.5364 313.29Z" fill="#CAE1F5"/>
<path d="M47.3529 306.795C62.9766 317.252 84.1197 313.064 94.5772 297.441C105.035 281.817 100.847 260.674 85.2229 250.216C69.5991 239.759 48.4561 243.947 37.9986 259.571C27.5411 275.194 31.7292 296.337 47.3529 306.795Z" fill="#CAE1F5"/>
<path d="M45.8607 305.107C61.4845 315.565 82.6275 311.377 93.085 295.753C103.542 280.129 99.3544 258.986 83.7307 248.529C68.1069 238.071 46.9639 242.259 36.5064 257.883C26.0489 273.507 30.237 294.65 45.8607 305.107Z" fill="#CAE1F5"/>
<path d="M69.5521 308.58C88.0343 305.138 100.227 287.366 96.786 268.884C93.3447 250.402 75.5722 238.209 57.09 241.65C38.6078 245.091 26.4147 262.864 29.856 281.346C33.2974 299.828 51.0699 312.021 69.5521 308.58Z" fill="#CAE1F5"/>
<path d="M74.471 304.967C91.9296 297.991 100.427 278.182 93.4498 260.723C86.4729 243.264 66.664 234.767 49.2054 241.744C31.7468 248.721 23.2496 268.53 30.2265 285.989C37.2034 303.447 57.0123 311.944 74.471 304.967Z" fill="#CAE1F5"/>
<path d="M52.2317 304.72C70.489 309.21 88.9293 298.049 93.4192 279.792C97.9092 261.535 86.7486 243.094 68.4913 238.604C50.234 234.114 31.7938 245.275 27.3038 263.532C22.8138 281.79 33.9744 300.23 52.2317 304.72Z" fill="#CAE1F5"/>
<path d="M65.1025 303.379C83.5787 299.907 95.7418 282.114 92.2696 263.638C88.7973 245.162 71.0046 232.998 52.5284 236.471C34.0522 239.943 21.889 257.736 25.3613 276.212C28.8335 294.688 46.6263 306.851 65.1025 303.379Z" fill="#CAE1F5"/>
<path d="M41.197 298.287C57.7571 307.188 78.3973 300.979 87.2981 284.419C96.199 267.859 89.99 247.218 73.43 238.318C56.8699 229.417 36.2297 235.626 27.3289 252.186C18.428 268.746 24.637 289.386 41.197 298.287Z" fill="#CAE1F5"/>
<path d="M33.1708 292.043C47.2289 304.526 68.7449 303.249 81.228 289.191C93.7111 275.133 92.4344 253.617 78.3763 241.134C64.3182 228.651 42.8023 229.928 30.3191 243.986C17.836 258.044 19.1127 279.56 33.1708 292.043Z" fill="#CAE1F5"/>
<path d="M46.1145 298.009C64.3718 302.499 82.8121 291.338 87.302 273.081C91.792 254.824 80.6314 236.383 62.3741 231.893C44.1168 227.404 25.6766 238.564 21.1866 256.821C16.6967 275.079 27.8573 293.519 46.1145 298.009Z" fill="#CAE1F5"/>
<path d="M33.7709 291.494C49.3946 301.952 70.5376 297.763 80.9951 282.14C91.4526 266.516 87.2646 245.373 71.6408 234.915C56.0171 224.458 34.8741 228.646 24.4166 244.27C13.9591 259.893 18.1471 281.037 33.7709 291.494Z" fill="#CAE1F5"/>
<path d="M23.0262 280.722C33.6306 296.245 54.8111 300.232 70.3341 289.628C85.8571 279.023 89.8444 257.843 79.24 242.32C68.6356 226.797 47.4552 222.809 31.9322 233.414C16.4092 244.018 12.4218 265.199 23.0262 280.722Z" fill="#CAE1F5"/>
<path d="M45.6883 293.794C64.3702 295.908 81.2281 282.476 83.3416 263.795C85.4551 245.113 72.0239 228.255 53.3421 226.141C34.6602 224.028 17.8023 237.459 15.6888 256.141C13.5753 274.823 27.0065 291.681 45.6883 293.794Z" fill="#CAE1F5"/>
<path d="M60.6233 289.905C78.0819 282.928 86.5791 263.119 79.6022 245.661C72.6253 228.202 52.8164 219.705 35.3577 226.682C17.8991 233.659 9.40198 253.467 16.3789 270.926C23.3558 288.385 43.1647 296.882 60.6233 289.905Z" fill="#CAE1F5"/>
<path d="M47.3209 290.723C66.1139 290.191 80.9173 274.525 80.3854 255.732C79.8536 236.939 64.1877 222.136 45.3948 222.668C26.6019 223.2 11.7984 238.866 12.3303 257.658C12.8622 276.451 28.528 291.255 47.3209 290.723Z" fill="#CAE1F5"/>
<path d="M59.4267 285.808C76.381 277.684 83.5393 257.354 75.4153 240.4C67.2913 223.446 46.9614 216.287 30.0071 224.411C13.0528 232.535 5.89439 252.865 14.0184 269.82C22.1424 286.774 42.4724 293.932 59.4267 285.808Z" fill="#CAE1F5"/>
<path d="M18.8816 277.455C32.1074 290.815 53.6597 290.924 67.02 277.699C80.3804 264.473 80.4895 242.921 67.2638 229.56C54.038 216.2 32.4857 216.091 19.1253 229.316C5.76499 242.542 5.65587 264.095 18.8816 277.455Z" fill="#CAE1F5"/>
<path d="M55.4326 282.935C72.5678 275.198 80.187 255.036 72.4506 237.901C64.7142 220.766 44.5518 213.146 27.4166 220.883C10.2814 228.619 2.66221 248.781 10.3986 265.917C18.135 283.052 38.2974 290.671 55.4326 282.935Z" fill="#CAE1F5"/>
<path d="M29.9743 282.989C47.9807 288.393 66.9589 278.177 72.3632 260.17C77.7675 242.164 67.5514 223.186 49.545 217.781C31.5385 212.377 12.5604 222.593 7.15607 240.6C1.75178 258.606 11.9678 277.584 29.9743 282.989Z" fill="#CAE1F5"/>
<path d="M53.3312 279.178C70.1172 270.714 76.8632 250.244 68.3988 233.458C59.9344 216.672 39.4649 209.926 22.6789 218.391C5.8929 226.855 -0.853095 247.325 7.6113 264.111C16.0757 280.897 36.5452 287.643 53.3312 279.178Z" fill="#CAE1F5"/>
<path d="M47.0088 279.685C64.8674 273.808 74.5804 254.566 68.7034 236.708C62.8264 218.849 43.585 209.136 25.7264 215.013C7.86786 220.89 -1.84515 240.132 4.03181 257.99C9.90877 275.849 29.1502 285.562 47.0088 279.685Z" fill="#CAE1F5"/>
<path d="M30.1716 279.535C48.8093 281.998 65.9156 268.887 68.3795 250.249C70.8434 231.612 57.732 214.505 39.0942 212.041C20.4565 209.577 3.35025 222.689 0.886331 241.327C-1.57759 259.964 11.5339 277.071 30.1716 279.535Z" fill="#CAE1F5"/>
<path d="M37.1502 278.116C55.8044 275.776 69.0294 258.756 66.689 240.102C64.3486 221.448 47.3291 208.223 28.6749 210.563C10.0207 212.904 -3.2043 229.923 -0.863916 248.577C1.47647 267.231 18.496 280.456 37.1502 278.116Z" fill="#CAE1F5"/>
<path d="M3.03118 262.068C13.6109 277.609 34.7855 281.63 50.3261 271.051C65.8667 260.471 69.8883 239.296 59.3086 223.756C48.7289 208.215 27.5542 204.194 12.0137 214.773C-3.52692 225.353 -7.54851 246.528 3.03118 262.068Z" fill="#CAE1F5"/>
<path d="M36.069 274.822C54.5044 271.139 66.4636 253.209 62.7806 234.773C59.0976 216.338 41.1671 204.379 22.7318 208.062C4.29638 211.745 -7.66279 229.675 -3.9798 248.111C-0.296808 266.546 17.6337 278.505 36.069 274.822Z" fill="#CAE1F5"/>
<path d="M0.256005 260.372C11.4492 275.478 32.7687 278.649 47.8744 267.456C62.9801 256.263 66.1517 234.943 54.9585 219.838C43.7653 204.732 22.4458 201.56 7.34015 212.753C-7.76554 223.947 -10.9372 245.266 0.256005 260.372Z" fill="#CAE1F5"/>
<path d="M37.0259 270.848C54.7774 264.657 64.1492 245.248 57.9583 227.496C51.7675 209.745 32.3583 200.373 14.6068 206.564C-3.1447 212.755 -12.5165 232.164 -6.32564 249.915C-0.134789 267.667 19.2743 277.039 37.0259 270.848Z" fill="#CAE1F5"/>
<path d="M36.6428 268.975C54.1015 261.998 62.5986 242.189 55.6217 224.731C48.6448 207.272 28.8359 198.775 11.3773 205.752C-6.08136 212.729 -14.5785 232.538 -7.60159 249.996C-0.624695 267.455 19.1842 275.952 36.6428 268.975Z" fill="#CAE1F5"/>
<path d="M29.9176 269.127C48.2287 264.868 59.6204 246.571 55.3617 228.26C51.1029 209.949 32.8063 198.557 14.4951 202.816C-3.81603 207.075 -15.2077 225.371 -10.9489 243.683C-6.69014 261.994 11.6064 273.385 29.9176 269.127Z" fill="#CAE1F5"/>
<path d="M-6.87554 255.112C4.40237 270.153 25.738 273.203 40.7788 261.925C55.8197 250.648 58.8702 229.312 47.5923 214.271C36.3144 199.23 14.9788 196.18 -0.0620561 207.458C-15.1029 218.735 -18.1534 240.071 -6.87554 255.112Z" fill="#CAE1F5"/>
<path d="M31.1072 265.113C48.5767 258.164 57.1057 238.369 50.157 220.9C43.2084 203.43 23.4135 194.901 5.94397 201.85C-11.5256 208.799 -20.0545 228.594 -13.1059 246.063C-6.15728 263.533 13.6376 272.062 31.1072 265.113Z" fill="#CAE1F5"/>
<path d="M8.44266 265.276C26.6999 269.766 45.1402 258.606 49.6302 240.349C54.1201 222.091 42.9595 203.651 24.7022 199.161C6.44497 194.671 -11.9953 205.832 -16.4853 224.089C-20.9752 242.346 -9.81461 260.787 8.44266 265.276Z" fill="#CAE1F5"/>
<path d="M19.3374 264.729C37.9579 262.136 50.9504 244.939 48.357 226.318C45.7637 207.698 28.5664 194.705 9.94588 197.298C-8.67463 199.892 -21.6672 217.089 -19.0738 235.71C-16.4804 254.33 0.716896 267.323 19.3374 264.729Z" fill="#CAE1F5"/>
<path d="M-9.8487 255.375C4.20939 267.858 25.7253 266.581 38.2085 252.523C50.6916 238.465 49.4149 216.949 35.3568 204.466C21.2987 191.983 -0.217246 193.26 -12.7004 207.318C-25.1835 221.376 -23.9068 242.892 -9.8487 255.375Z" fill="#CAE1F5"/>
<path d="M9.01104 262.81C27.7865 263.789 43.8002 249.362 44.7787 230.586C45.7572 211.811 31.3299 195.797 12.5545 194.819C-6.22092 193.84 -22.2346 208.267 -23.2131 227.043C-24.1916 245.818 -9.76438 261.832 9.01104 262.81Z" fill="#CAE1F5"/>
<path d="M10.0544 261.713C28.8433 261.046 43.5345 245.275 42.8681 226.486C42.2018 207.697 26.4302 193.006 7.64133 193.672C-11.1475 194.339 -25.8387 210.11 -25.1724 228.899C-24.506 247.688 -8.73444 262.379 10.0544 261.713Z" fill="#CAE1F5"/>
<path d="M11.5405 260.395C30.161 257.802 43.1536 240.605 40.5602 221.984C37.9668 203.364 20.7695 190.371 2.149 192.964C-16.4715 195.558 -29.464 212.755 -26.8706 231.376C-24.2772 249.996 -7.07998 262.989 11.5405 260.395Z" fill="#CAE1F5"/>
<path d="M3.1126 259.682C21.888 260.66 37.9017 246.233 38.8802 227.457C39.8587 208.682 25.4315 192.668 6.65606 191.69C-12.1194 190.711 -28.1331 205.138 -29.1116 223.914C-30.0901 242.689 -15.6628 258.703 3.1126 259.682Z" fill="#CAE1F5"/>
<path d="M-13.9909 254.248C2.33229 263.577 23.1278 257.908 32.4573 241.585C41.7867 225.262 36.1172 204.466 19.794 195.137C3.47083 185.807 -17.3247 191.477 -26.6542 207.8C-35.9836 224.123 -30.3141 244.919 -13.9909 254.248Z" fill="#CAE1F5"/>
<path d="M11.4775 256.089C29.3361 250.212 39.0491 230.971 33.1722 213.112C27.2952 195.253 8.05375 185.54 -9.80482 191.417C-27.6634 197.294 -37.3764 216.536 -31.4994 234.394C-25.6225 252.253 -6.38103 261.966 11.4775 256.089Z" fill="#CAE1F5"/>
<path d="M-20.7467 250.798C-5.32999 261.557 15.8896 257.781 26.6486 242.364C37.4076 226.948 33.6318 205.728 18.2151 194.969C2.79846 184.21 -18.4211 187.986 -29.1801 203.403C-39.9391 218.819 -36.1633 240.039 -20.7467 250.798Z" fill="#CAE1F5"/>
<path d="M-31.8475 240.521C-21.6256 256.299 -0.54851 260.803 15.2295 250.581C31.0075 240.359 35.5116 219.282 25.2897 203.504C15.0678 187.726 -6.00935 183.222 -21.7873 193.444C-37.5653 203.666 -42.0694 224.743 -31.8475 240.521Z" fill="#CAE1F5"/>
<path d="M7.03799 252.961C24.534 246.081 33.1404 226.321 26.2608 208.825C19.3812 191.329 -0.379224 182.722 -17.8753 189.602C-35.3713 196.482 -43.9777 216.242 -37.0981 233.738C-30.2184 251.234 -10.4581 259.84 7.03799 252.961Z" fill="#CAE1F5"/>
<path d="M-8.03964 254.566C10.7585 254.821 26.2044 239.789 26.4597 220.991C26.7149 202.193 11.6829 186.747 -7.11524 186.491C-25.9134 186.236 -41.3593 201.268 -41.6145 220.066C-41.8698 238.865 -26.8378 254.31 -8.03964 254.566Z" fill="#CAE1F5"/>
<path d="M-16.2777 253.202C2.16969 256.828 20.0632 244.812 23.6886 226.365C27.314 207.917 15.2985 190.024 -3.14889 186.398C-21.5962 182.773 -39.4898 194.789 -43.1152 213.236C-46.7406 231.683 -34.725 249.577 -16.2777 253.202Z" fill="#CAE1F5"/>
<path d="M-36.091 243.053C-22.8653 256.413 -1.31297 256.522 12.0474 243.296C25.4077 230.071 25.5169 208.518 12.2911 195.158C-0.934658 181.798 -22.487 181.688 -35.8473 194.914C-49.2077 208.14 -49.3168 229.692 -36.091 243.053Z" fill="#CAE1F5"/>
<path d="M-14.5709 252.591C4.22728 252.846 19.6731 237.814 19.9284 219.016C20.1837 200.218 5.15168 184.772 -13.6465 184.517C-32.4447 184.262 -47.8905 199.294 -48.1458 218.092C-48.4011 236.89 -33.3691 252.336 -14.5709 252.591Z" fill="#CAE1F5"/>
<path d="M-3.74387 249.667C13.7148 242.69 22.2119 222.881 15.235 205.422C8.25809 187.964 -11.5508 179.466 -29.0094 186.443C-46.4681 193.42 -54.9652 213.229 -47.9883 230.688C-41.0114 248.146 -21.2025 256.644 -3.74387 249.667Z" fill="#CAE1F5"/>
<path d="M-26.7448 250.692C-8.48757 255.182 9.95271 244.022 14.4427 225.765C18.9326 207.507 7.77202 189.067 -10.4853 184.577C-28.7425 180.087 -47.1828 191.248 -51.6728 209.505C-56.1627 227.762 -45.0021 246.203 -26.7448 250.692Z" fill="#CAE1F5"/>
<path d="M-9.50389 249.435C8.2209 243.167 17.5083 223.717 11.24 205.992C4.97172 188.267 -14.4785 178.98 -32.2033 185.248C-49.9281 191.516 -59.2154 210.966 -52.9472 228.691C-46.6789 246.416 -27.2287 255.703 -9.50389 249.435Z" fill="#CAE1F5"/>
<path d="M-39.174 246.99C-22.614 255.891 -1.97383 249.682 6.92704 233.122C15.8279 216.562 9.61892 195.922 -6.94114 187.021C-23.5012 178.12 -44.1414 184.329 -53.0422 200.889C-61.9431 217.449 -55.7341 238.089 -39.174 246.99Z" fill="#CAE1F5"/>
<path d="M-35.1351 249.36C-17.1286 254.764 1.84951 244.548 7.2538 226.541C12.6581 208.535 2.44203 189.557 -15.5644 184.153C-33.5709 178.748 -52.549 188.964 -57.9533 206.971C-63.3576 224.977 -53.1415 243.955 -35.1351 249.36Z" fill="#CAE1F5"/>
<path d="M-18.133 249.339C-0.079561 244.094 10.3035 225.206 5.05827 207.153C-0.186985 189.099 -19.0743 178.716 -37.1277 183.962C-55.1812 189.207 -65.5643 208.094 -60.319 226.148C-55.0738 244.201 -36.1864 254.584 -18.133 249.339Z" fill="#CAE1F5"/>
<path d="M-53.6747 240.932C-40.2448 254.089 -18.6922 253.867 -5.53571 240.438C7.62081 227.008 7.3992 205.455 -6.03069 192.299C-19.4606 179.142 -41.0131 179.364 -54.1696 192.794C-67.3262 206.223 -67.1046 227.776 -53.6747 240.932Z" fill="#CAE1F5"/>
<path d="M-29.6739 250.486C-10.925 249.111 3.15933 232.797 1.78425 214.048C0.409168 195.299 -15.9046 181.215 -34.6536 182.59C-53.4025 183.965 -67.4868 200.279 -66.1118 219.028C-64.7367 237.777 -48.4229 251.861 -29.6739 250.486Z" fill="#CAE1F5"/>
<path d="M-22.4005 248.49C-4.8141 241.845 4.05626 222.202 -2.58803 204.616C-9.23233 187.029 -28.8752 178.159 -46.4616 184.803C-64.0481 191.448 -72.9184 211.091 -66.2741 228.677C-59.6298 246.263 -39.987 255.134 -22.4005 248.49Z" fill="#CAE1F5"/>
<path d="M-58.7101 244.712C-43.4209 255.651 -22.159 252.124 -11.2204 236.835C-0.281753 221.546 -3.80856 200.284 -19.0977 189.345C-34.3869 178.407 -55.6488 181.933 -66.5874 197.223C-77.5261 212.512 -73.9993 233.774 -58.7101 244.712Z" fill="#CAE1F5"/>
<path d="M-26.1472 247.82C-9.2623 239.551 -2.27765 219.16 -10.5465 202.275C-18.8154 185.39 -39.2065 178.406 -56.0913 186.674C-72.9762 194.943 -79.9608 215.334 -71.692 232.219C-63.4231 249.104 -43.032 256.089 -26.1472 247.82Z" fill="#CAE1F5"/>
<path d="M-66.8346 242.229C-53.2188 255.192 -31.6728 254.662 -18.7103 241.046C-5.74781 227.43 -6.27744 205.884 -19.8933 192.922C-33.5091 179.959 -55.0551 180.489 -68.0175 194.105C-80.98 207.721 -80.4504 229.267 -66.8346 242.229Z" fill="#CAE1F5"/>
<path d="M-68.3754 382.298C-54.4728 394.952 -32.9441 393.94 -20.2897 380.038C-7.63528 366.135 -8.64717 344.606 -22.5498 331.952C-36.4524 319.297 -57.9811 320.309 -70.6355 334.212C-83.2898 348.115 -82.278 369.643 -68.3754 382.298Z" fill="#CAE1F5"/>
<path d="M-60.3873 385.208C-44.9706 395.967 -23.751 392.191 -12.9921 376.775C-2.23305 361.358 -6.00884 340.138 -21.4255 329.379C-36.8422 318.62 -58.0617 322.396 -68.8207 337.813C-79.5797 353.229 -75.8039 374.449 -60.3873 385.208Z" fill="#CAE1F5"/>
<path d="M-32.311 390.926C-13.6491 388.644 -0.371094 371.665 -2.65367 353.003C-4.93625 334.341 -21.9151 321.063 -40.5769 323.346C-59.2388 325.628 -72.5168 342.607 -70.2342 361.269C-67.9516 379.931 -50.9728 393.209 -32.311 390.926Z" fill="#CAE1F5"/>
<path d="M-59.1606 380.05C-46.3927 393.849 -24.8559 394.685 -11.057 381.917C2.74198 369.149 3.57777 347.612 -9.19018 333.813C-21.9581 320.014 -43.4949 319.179 -57.2938 331.947C-71.0928 344.714 -71.9286 366.251 -59.1606 380.05Z" fill="#CAE1F5"/>
<path d="M-32.4303 390.779C-13.6321 391.034 1.81377 376.002 2.06904 357.204C2.3243 338.406 -12.7077 322.96 -31.5059 322.704C-50.304 322.449 -65.7499 337.481 -66.0052 356.279C-66.2604 375.077 -51.2284 390.523 -32.4303 390.779Z" fill="#CAE1F5"/>
<path d="M-58.246 374.962C-48.024 390.74 -26.9469 395.244 -11.1689 385.023C4.60905 374.801 9.11315 353.724 -1.10877 337.946C-11.3307 322.168 -32.4078 317.663 -48.1858 327.885C-63.9638 338.107 -68.4679 359.184 -58.246 374.962Z" fill="#CAE1F5"/>
<path d="M-46.0493 384.687C-30.2608 394.892 -9.18932 390.365 1.01507 374.576C11.2195 358.788 6.69262 337.716 -9.09592 327.512C-24.8845 317.307 -45.9559 321.834 -56.1603 337.623C-66.3647 353.411 -61.8378 374.483 -46.0493 384.687Z" fill="#CAE1F5"/>
<path d="M-18.8064 389.091C-0.354342 385.487 11.682 367.607 8.07761 349.154C4.47319 330.702 -13.4071 318.666 -31.8592 322.27C-50.3112 325.875 -62.3476 343.755 -58.7431 362.207C-55.1387 380.659 -37.2584 392.696 -18.8064 389.091Z" fill="#CAE1F5"/>
<path d="M-23.5592 389.243C-4.761 389.499 10.6849 374.467 10.9401 355.669C11.1954 336.87 -3.8366 321.424 -22.6348 321.169C-41.4329 320.914 -56.8788 335.946 -57.1341 354.744C-57.3893 373.542 -42.3573 388.988 -23.5592 389.243Z" fill="#CAE1F5"/>
<path d="M-16.2681 388.446C2.35244 385.853 15.345 368.655 12.7516 350.035C10.1582 331.414 -7.03909 318.422 -25.6596 321.015C-44.2801 323.609 -57.2726 340.806 -54.6792 359.426C-52.0858 378.047 -34.8886 391.039 -16.2681 388.446Z" fill="#CAE1F5"/>
<path d="M-46.0236 374.49C-34.7852 389.56 -13.4575 392.667 1.6132 381.429C16.6839 370.19 19.7905 348.862 8.5521 333.792C-2.68633 318.721 -24.0141 315.614 -39.0847 326.853C-54.1554 338.091 -57.2621 359.419 -46.0236 374.49Z" fill="#CAE1F5"/>
<path d="M-40.7902 377.406C-27.5645 390.766 -6.01219 390.876 7.34816 377.65C20.7085 364.424 20.8176 342.872 7.59188 329.511C-5.63388 316.151 -27.1862 316.042 -40.5465 329.268C-53.9069 342.493 -54.016 364.046 -40.7902 377.406Z" fill="#CAE1F5"/>
<path d="M-32.1678 381.835C-16.1224 391.632 4.82709 386.567 14.6242 370.521C24.4213 354.476 19.356 333.527 3.3106 323.729C-12.7348 313.932 -33.6843 318.998 -43.4814 335.043C-53.2785 351.088 -48.2132 372.038 -32.1678 381.835Z" fill="#CAE1F5"/>
<path d="M-11.338 386.051C7.45336 385.497 22.2372 369.814 21.6827 351.022C21.1281 332.231 5.44513 317.447 -13.3463 318.002C-32.1377 318.556 -46.9215 334.239 -46.367 353.031C-45.8124 371.822 -30.1294 386.606 -11.338 386.051Z" fill="#CAE1F5"/>
<path d="M-10.7389 385.302C8.05932 385.557 23.5052 370.525 23.7604 351.727C24.0157 332.929 8.98371 317.483 -9.81446 317.228C-28.6126 316.973 -44.0585 332.005 -44.3138 350.803C-44.569 369.601 -29.537 385.047 -10.7389 385.302Z" fill="#CAE1F5"/>
<path d="M-32.2149 374.519C-18.9001 387.791 2.65261 387.756 15.9245 374.442C29.1963 361.127 29.1616 339.574 15.8468 326.302C2.53203 313.03 -19.0207 313.065 -32.2926 326.38C-45.5644 339.695 -45.5297 361.248 -32.2149 374.519Z" fill="#CAE1F5"/>
<path d="M-23.8017 378.571C-7.75556 388.366 13.1925 383.298 22.987 367.252C32.7816 351.206 27.7136 330.258 11.6674 320.463C-4.37873 310.669 -25.3268 315.737 -35.1213 331.783C-44.9159 347.829 -39.8479 368.777 -23.8017 378.571Z" fill="#CAE1F5"/>
<path d="M-4.5201 382.656C14.2781 382.911 29.7239 367.879 29.9792 349.081C30.2345 330.282 15.2025 314.837 -3.59571 314.581C-22.3939 314.326 -37.8397 329.358 -38.095 348.156C-38.3503 366.954 -23.3183 382.4 -4.5201 382.656Z" fill="#CAE1F5"/>
<path d="M-26.1457 371.556C-12.92 384.917 8.63234 385.026 21.9927 371.8C35.3531 358.574 35.4622 337.022 22.2364 323.662C9.01065 310.301 -12.5416 310.192 -25.902 323.418C-39.2624 336.644 -39.3715 358.196 -26.1457 371.556Z" fill="#CAE1F5"/>
<path d="M-16.0608 376.531C0.499291 385.432 21.1395 379.223 30.0403 362.663C38.9412 346.103 32.7322 325.463 16.1721 316.562C-0.38792 307.661 -21.0281 313.87 -29.929 330.43C-38.8298 346.99 -32.6208 367.63 -16.0608 376.531Z" fill="#CAE1F5"/>
<path d="M12.8635 377.78C30.6797 371.781 40.2591 352.475 34.2598 334.659C28.2604 316.842 8.95415 307.263 -8.86204 313.262C-26.6782 319.262 -36.2577 338.568 -30.2583 356.384C-24.259 374.2 -4.95271 383.78 12.8635 377.78Z" fill="#CAE1F5"/>
<path d="M4.21094 378.448C23.0108 378.342 38.1648 363.015 38.0583 344.215C37.9518 325.415 22.6252 310.261 3.82533 310.368C-14.9745 310.474 -30.1285 325.801 -30.022 344.601C-29.9156 363.401 -14.5889 378.555 4.21094 378.448Z" fill="#CAE1F5"/>
<path d="M19.6234 374.366C36.8413 366.819 44.681 346.743 37.1339 329.525C29.5867 312.307 9.51076 304.467 -7.70711 312.014C-24.925 319.562 -32.7647 339.638 -25.2176 356.855C-17.6705 374.073 2.40553 381.913 19.6234 374.366Z" fill="#CAE1F5"/>
<path d="M-1.90071 374.657C16.1057 380.061 35.0839 369.845 40.4882 351.838C45.8925 333.832 35.6764 314.854 17.67 309.449C-0.336486 304.045 -19.3146 314.261 -24.7189 332.268C-30.1232 350.274 -19.9072 369.252 -1.90071 374.657Z" fill="#CAE1F5"/>
<path d="M20.4541 373.155C38.3127 367.278 48.0257 348.037 42.1487 330.178C36.2718 312.32 17.0303 302.607 -0.828262 308.484C-18.6868 314.361 -28.3998 333.602 -22.5229 351.461C-16.6459 369.319 2.59554 379.032 20.4541 373.155Z" fill="#CAE1F5"/>
<path d="M-2.93542 370.309C14.0485 378.371 34.3523 371.138 42.4144 354.154C50.4764 337.171 43.2438 316.867 26.2599 308.805C9.276 300.743 -11.0278 307.975 -19.0899 324.959C-27.1519 341.943 -19.9193 362.247 -2.93542 370.309Z" fill="#CAE1F5"/>
<path d="M13.0776 372.251C31.8757 372.507 47.3216 357.475 47.5769 338.676C47.8321 319.878 32.8001 304.432 14.0019 304.177C-4.79623 303.922 -20.2421 318.954 -20.4974 337.752C-20.7526 356.55 -5.72062 371.996 13.0776 372.251Z" fill="#CAE1F5"/>
<path d="M27.7548 368.658C45.2645 361.812 53.9088 342.067 47.0624 324.558C40.216 307.048 20.4716 298.404 2.96188 305.25C-14.5478 312.096 -23.1921 331.841 -16.3457 349.351C-9.49936 366.86 10.2451 375.505 27.7548 368.658Z" fill="#CAE1F5"/>
<path d="M-5.28115 361.029C8.8452 373.433 30.3521 372.036 42.7558 357.91C55.1595 343.784 53.763 322.277 39.6366 309.873C25.5103 297.469 4.00341 298.866 -8.40029 312.992C-20.804 327.118 -19.4075 348.625 -5.28115 361.029Z" fill="#CAE1F5"/>
<path d="M9.20866 366.707C27.2151 372.112 46.1933 361.896 51.5976 343.889C57.0018 325.883 46.7858 306.904 28.7793 301.5C10.7729 296.096 -8.20526 306.312 -13.6096 324.318C-19.0138 342.325 -8.79778 361.303 9.20866 366.707Z" fill="#CAE1F5"/>
<path d="M35.4579 363.349C52.4122 355.225 59.5706 334.895 51.4466 317.941C43.3226 300.987 22.9926 293.828 6.03832 301.952C-10.916 310.076 -18.0744 330.406 -9.95036 347.361C-1.82637 364.315 18.5036 371.473 35.4579 363.349Z" fill="#CAE1F5"/>
<path d="M27.1421 364.905C45.7626 362.312 58.7551 345.114 56.1617 326.494C53.5683 307.873 36.3711 294.881 17.7506 297.474C-0.869942 300.068 -13.8625 317.265 -11.2691 335.885C-8.67568 354.506 8.52158 367.498 27.1421 364.905Z" fill="#CAE1F5"/>
<path d="M18.4889 363.25C37.0272 366.378 54.5913 353.886 57.7193 335.347C60.8474 316.809 48.3549 299.245 29.8166 296.117C11.2783 292.989 -6.2858 305.481 -9.41387 324.02C-12.5419 342.558 -0.0494502 360.122 18.4889 363.25Z" fill="#CAE1F5"/>
<path d="M26.2356 362.25C45.0342 361.991 60.0631 346.541 59.8035 327.743C59.544 308.944 44.0943 293.915 25.2957 294.175C6.4971 294.434 -8.53179 309.884 -8.27226 328.682C-8.01273 347.481 7.43695 362.51 26.2356 362.25Z" fill="#CAE1F5"/>
<path d="M13.1061 357.499C30.1667 365.398 50.4005 357.971 58.2996 340.91C66.1987 323.85 58.7718 303.616 41.7112 295.717C24.6507 287.818 4.41683 295.244 -3.48227 312.305C-11.3814 329.366 -3.9545 349.599 13.1061 357.499Z" fill="#CAE1F5"/>
<path d="M19.2126 357.668C37.219 363.073 56.1972 352.856 61.6015 334.85C67.0057 316.844 56.7897 297.865 38.7832 292.461C20.7768 287.057 1.79864 297.273 -3.60565 315.279C-9.00994 333.286 1.20612 352.264 19.2126 357.668Z" fill="#CAE1F5"/>
<path d="M3.18179 343.749C14.375 358.854 35.6945 362.026 50.8002 350.833C65.9058 339.64 69.0775 318.32 57.8843 303.215C46.6911 288.109 25.3716 284.937 10.2659 296.13C-4.83976 307.324 -8.01143 328.643 3.18179 343.749Z" fill="#CAE1F5"/>
<path d="M6.47245 344.237C18.8432 358.392 40.3473 359.839 54.5031 347.469C68.6589 335.098 70.1059 313.594 57.7352 299.438C45.3644 285.282 23.8604 283.835 9.70457 296.206C-4.45124 308.577 -5.89832 330.081 6.47245 344.237Z" fill="#CAE1F5"/>
<path d="M23.7634 352.84C41.7698 358.244 60.7479 348.028 66.1522 330.022C71.5565 312.015 61.3405 293.037 43.334 287.633C25.3276 282.229 6.34942 292.445 0.945133 310.451C-4.45916 328.458 5.75691 347.436 23.7634 352.84Z" fill="#CAE1F5"/>
<path d="M39.7358 352.241C58.3563 349.648 71.3489 332.45 68.7555 313.83C66.1621 295.209 48.9648 282.217 30.3443 284.81C11.7238 287.403 -1.26873 304.601 1.32467 323.221C3.91807 341.842 21.1153 354.834 39.7358 352.241Z" fill="#CAE1F5"/>
<path d="M41.228 350.569C59.8485 347.976 72.8411 330.778 70.2477 312.158C67.6543 293.537 50.457 280.545 31.8365 283.138C13.216 285.732 0.223458 302.929 2.81686 321.549C5.41025 340.17 22.6075 353.162 41.228 350.569Z" fill="#CAE1F5"/>
<path d="M28.154 347.692C46.1604 353.096 65.1386 342.88 70.5429 324.873C75.9472 306.867 65.7311 287.889 47.7246 282.485C29.7182 277.08 10.74 287.296 5.33576 305.303C-0.0685335 323.309 10.1475 342.287 28.154 347.692Z" fill="#CAE1F5"/>
<path d="M45.7563 346.784C64.2133 343.204 76.274 325.34 72.6947 306.883C69.1153 288.426 51.2514 276.365 32.7944 279.945C14.3374 283.524 2.27663 301.388 5.85597 319.845C9.4353 338.302 27.2993 350.363 45.7563 346.784Z" fill="#CAE1F5"/>
<path d="M21.2221 339.501C36.6388 350.26 57.8583 346.484 68.6173 331.068C79.3763 315.651 75.6005 294.431 60.1839 283.672C44.7672 272.913 23.5476 276.689 12.7886 292.106C2.02965 307.522 5.80543 328.742 21.2221 339.501Z" fill="#CAE1F5"/>
<path d="M25.8416 339.814C42.4016 348.715 63.0418 342.506 71.9427 325.946C80.8435 309.386 74.6345 288.746 58.0745 279.845C41.5144 270.944 20.8743 277.153 11.9734 293.713C3.07252 310.273 9.28152 330.913 25.8416 339.814Z" fill="#CAE1F5"/>
<path d="M33.5173 340.604C51.5237 346.008 70.5019 335.792 75.9061 317.786C81.3104 299.779 71.0944 280.801 53.0879 275.397C35.0815 269.992 16.1033 280.208 10.699 298.215C5.29475 316.221 15.5108 335.199 33.5173 340.604Z" fill="#CAE1F5"/>
<path d="M53.5519 338.95C71.6845 333.987 82.3603 315.264 77.397 297.132C72.4336 278.999 53.7107 268.323 35.5781 273.287C17.4455 278.25 6.76967 296.973 11.733 315.105C16.6963 333.238 35.4193 343.914 53.5519 338.95Z" fill="#CAE1F5"/>
<path d="M30.7025 334.772C47.5391 343.136 67.9677 336.267 76.3311 319.43C84.6946 302.594 77.8258 282.165 60.9892 273.802C44.1526 265.438 23.724 272.307 15.3606 289.143C6.99711 305.98 13.8659 326.409 30.7025 334.772Z" fill="#CAE1F5"/>
<path d="M37.2673 335.022C55.2737 340.426 74.2519 330.21 79.6561 312.204C85.0604 294.197 74.8444 275.219 56.8379 269.815C38.8315 264.41 19.8533 274.626 14.449 292.633C9.04475 310.639 19.2608 329.617 37.2673 335.022Z" fill="#CAE1F5"/>
<path d="M62.8541 331.301C79.8483 323.259 87.1055 302.963 79.0636 285.969C71.0217 268.974 50.7259 261.717 33.7317 269.759C16.7375 277.801 9.48022 298.097 17.5222 315.091C25.5641 332.085 45.8599 339.342 62.8541 331.301Z" fill="#CAE1F5"/>
<path d="M22.0841 318.884C33.2774 333.989 54.5968 337.161 69.7025 325.968C84.8082 314.774 87.9799 293.455 76.7867 278.349C65.5934 263.244 44.274 260.072 29.1683 271.265C14.0626 282.458 10.8909 303.778 22.0841 318.884Z" fill="#CAE1F5"/>
<path d="M47.1282 330.466C65.8301 332.383 82.545 318.776 84.462 300.074C86.3789 281.372 72.7719 264.657 54.0699 262.74C35.368 260.823 18.6531 274.43 16.7361 293.132C14.8192 311.834 28.4262 328.549 47.1282 330.466Z" fill="#CAE1F5"/>
<path d="M58.3776 328.068C76.813 324.385 88.7722 306.455 85.0892 288.019C81.4062 269.584 63.4757 257.625 45.0403 261.308C26.605 264.991 14.6458 282.921 18.3288 301.357C22.0118 319.792 39.9423 331.751 58.3776 328.068Z" fill="#CAE1F5"/>
<path d="M38.084 323.333C55.0426 331.447 75.368 324.277 83.4822 307.319C91.5963 290.36 84.4265 270.035 67.4679 261.92C50.5094 253.806 30.1839 260.976 22.0698 277.935C13.9556 294.893 21.1254 315.219 38.084 323.333Z" fill="#CAE1F5"/>
<path d="M54.0586 324.718C72.8585 324.611 88.0125 309.285 87.906 290.485C87.7995 271.685 72.4729 256.531 53.673 256.637C34.8731 256.744 19.7191 272.07 19.8256 290.87C19.9321 309.67 35.2587 324.824 54.0586 324.718Z" fill="#CAE1F5"/>
<path d="M53.3867 322.725C72.1679 323.559 88.0695 309.011 88.904 290.229C89.7385 271.448 75.1898 255.547 56.4087 254.712C37.6275 253.878 21.7259 268.426 20.8914 287.207C20.0569 305.989 34.6055 321.89 53.3867 322.725Z" fill="#CAE1F5"/>
<path d="M32.945 311.802C46.8476 324.456 68.3763 323.444 81.0306 309.541C93.685 295.639 92.6731 274.11 78.7705 261.456C64.8679 248.801 43.3392 249.813 30.6849 263.716C18.0305 277.618 19.0424 299.147 32.945 311.802Z" fill="#CAE1F5"/>
<path d="M42.1146 315.264C59.0677 323.391 79.3998 316.237 87.5275 299.284C95.6553 282.331 88.501 261.999 71.5479 253.871C54.5948 245.743 34.2627 252.897 26.1349 269.851C18.0072 286.804 25.1615 307.136 42.1146 315.264Z" fill="#CAE1F5"/>
<path d="M28.1986 299.304C37.4836 315.65 58.262 321.375 74.6084 312.09C90.9547 302.805 96.6791 282.026 87.3941 265.68C78.109 249.333 57.3307 243.609 40.9843 252.894C24.6379 262.179 18.9135 282.957 28.1986 299.304Z" fill="#CAE1F5"/>
<path d="M61.6355 314.314C80.3653 312.697 94.2383 296.203 92.6215 277.473C91.0048 258.743 74.5105 244.87 55.7807 246.487C37.0508 248.103 23.1778 264.598 24.7946 283.328C26.4113 302.057 42.9056 315.93 61.6355 314.314Z" fill="#CAE1F5"/>
<path d="M58.294 312.392C77.0808 313.106 92.8893 298.455 93.6034 279.669C94.3174 260.882 79.6665 245.073 60.8798 244.359C42.093 243.645 26.2844 258.296 25.5704 277.083C24.8564 295.87 39.5072 311.678 58.294 312.392Z" fill="#CAE1F5"/>
<path d="M69.3917 309.06C87.5243 304.097 98.2002 285.374 93.2368 267.241C88.2735 249.108 69.5505 238.433 51.4179 243.396C33.2853 248.359 22.6095 267.082 27.5728 285.215C32.5362 303.347 51.2591 314.023 69.3917 309.06Z" fill="#CAE1F5"/>
<path d="M72.0993 306.402C89.9088 300.379 99.4633 281.058 93.4398 263.248C87.4162 245.439 68.0957 235.884 50.2861 241.908C32.4766 247.931 22.9221 267.252 28.9456 285.062C34.9692 302.871 54.2897 312.426 72.0993 306.402Z" fill="#CAE1F5"/>
<path d="M76.7313 302.687C93.6856 294.563 100.844 274.233 92.72 257.279C84.596 240.325 64.2661 233.166 47.3118 241.29C30.3575 249.414 23.1991 269.744 31.3231 286.698C39.4471 303.653 59.777 310.811 76.7313 302.687Z" fill="#CAE1F5"/>
<path d="M35.4162 290.145C46.6094 305.251 67.9289 308.423 83.0345 297.229C98.1402 286.036 101.312 264.717 90.1187 249.611C78.9255 234.505 57.606 231.334 42.5003 242.527C27.3946 253.72 24.2229 275.04 35.4162 290.145Z" fill="#CAE1F5"/>
<path d="M55.3138 300.778C73.571 305.268 92.0113 294.108 96.5013 275.851C100.991 257.593 89.8306 239.153 71.5733 234.663C53.3161 230.173 34.8758 241.334 30.3858 259.591C25.8959 277.848 37.0565 296.288 55.3138 300.778Z" fill="#CAE1F5"/>
<path d="M47.7142 295.382C64.1747 304.467 84.8831 298.488 93.9679 282.027C103.053 265.567 97.0734 244.858 80.6129 235.774C64.1524 226.689 43.444 232.668 34.3592 249.129C25.2745 265.589 31.2537 286.297 47.7142 295.382Z" fill="#CAE1F5"/>
<path d="M77.2489 295.06C94.745 288.181 103.351 268.42 96.4717 250.924C89.5921 233.428 69.8317 224.822 52.3357 231.702C34.8396 238.581 26.2333 258.342 33.1129 275.838C39.9925 293.334 59.7529 301.94 77.2489 295.06Z" fill="#CAE1F5"/>
<path d="M48.5638 290.734C64.887 300.064 85.6825 294.394 95.012 278.071C104.341 261.748 98.6719 240.952 82.3487 231.623C66.0255 222.293 45.23 227.963 35.9005 244.286C26.5711 260.609 32.2406 281.405 48.5638 290.734Z" fill="#CAE1F5"/>
<path d="M50.6943 289.374C67.496 297.808 87.9531 291.024 96.3866 274.222C104.82 257.421 98.0363 236.963 81.2346 228.53C64.4329 220.096 43.9758 226.88 35.5424 243.682C27.1089 260.484 33.8926 280.941 50.6943 289.374Z" fill="#CAE1F5"/>
<path d="M67.4241 290.795C86.2179 290.32 101.068 274.7 100.594 255.906C100.119 237.112 84.4988 222.261 65.705 222.736C46.9112 223.211 32.0606 238.831 32.5353 257.625C33.0101 276.419 48.6303 291.269 67.4241 290.795Z" fill="#CAE1F5"/>
<path d="M79.1703 286.403C96.7458 279.73 105.584 260.073 98.9118 242.498C92.2392 224.922 72.5823 216.084 55.0068 222.756C37.4313 229.429 28.5928 249.086 35.2653 266.661C41.9379 284.237 61.5948 293.075 79.1703 286.403Z" fill="#CAE1F5"/>
<path d="M76.4777 285.167C94.6103 280.204 105.286 261.481 100.323 243.348C95.3594 225.216 76.6365 214.54 58.5039 219.503C40.3713 224.467 29.6954 243.19 34.6588 261.322C39.6221 279.455 58.3451 290.131 76.4777 285.167Z" fill="#CAE1F5"/>
<path d="M40.6466 270.417C51.8399 285.522 73.1593 288.694 88.265 277.501C103.371 266.308 106.542 244.988 95.3492 229.883C84.1559 214.777 62.8365 211.605 47.7308 222.798C32.6251 233.992 29.4534 255.311 40.6466 270.417Z" fill="#CAE1F5"/>
<path d="M67.1508 281.977C85.9392 282.663 101.726 267.987 102.411 249.199C103.097 230.41 88.4212 214.624 69.6328 213.938C50.8443 213.253 35.0577 227.928 34.3723 246.717C33.6869 265.505 48.3623 281.292 67.1508 281.977Z" fill="#CAE1F5"/>
<path d="M73.4585 279.356C92.079 276.763 105.072 259.565 102.478 240.945C99.8847 222.324 82.6875 209.332 64.067 211.925C45.4465 214.519 32.4539 231.716 35.0473 250.336C37.6407 268.957 54.838 281.95 73.4585 279.356Z" fill="#CAE1F5"/>
<path d="M73.8218 277.114C92.4423 274.521 105.435 257.323 102.841 238.703C100.248 220.082 83.0508 207.09 64.4303 209.683C45.8097 212.277 32.8172 229.474 35.4106 248.094C38.004 266.715 55.2013 279.707 73.8218 277.114Z" fill="#CAE1F5"/>
<path d="M49.1646 268.58C64.2954 279.736 85.6054 276.514 96.7616 261.383C107.918 246.252 104.696 224.942 89.5649 213.786C74.434 202.63 53.124 205.852 41.9678 220.983C30.8116 236.114 34.0337 257.424 49.1646 268.58Z" fill="#CAE1F5"/>
<path d="M47.5704 264.791C61.8724 276.993 83.3585 275.291 95.5609 260.989C107.763 246.687 106.061 225.201 91.7593 212.999C77.4573 200.796 55.9713 202.498 43.7689 216.8C31.5665 231.102 33.2685 252.588 47.5704 264.791Z" fill="#CAE1F5"/>
<path d="M73.9494 270.531C92.6204 268.329 105.971 251.408 103.769 232.737C101.567 214.066 84.6458 200.715 65.9748 202.917C47.3038 205.119 33.9531 222.04 36.1552 240.711C38.3573 259.382 55.2783 272.733 73.9494 270.531Z" fill="#CAE1F5"/>
<path d="M42.7208 254.712C53.9141 269.817 75.2335 272.989 90.3392 261.796C105.445 250.603 108.617 229.283 97.4234 214.177C86.2301 199.072 64.9107 195.9 49.805 207.093C34.6993 218.287 31.5276 239.606 42.7208 254.712Z" fill="#CAE1F5"/>
<path d="M79.2472 265.038C97.3798 260.075 108.056 241.352 103.092 223.219C98.129 205.087 79.406 194.411 61.2734 199.374C43.1408 204.338 32.465 223.061 37.4283 241.193C42.3916 259.326 61.1146 270.002 79.2472 265.038Z" fill="#CAE1F5"/>
<path d="M74.3556 263.742C93.0266 261.54 106.377 244.619 104.175 225.948C101.973 207.277 85.0521 193.926 66.3811 196.128C47.7101 198.33 34.3594 215.251 36.5615 233.922C38.7636 252.593 55.6846 265.944 74.3556 263.742Z" fill="#CAE1F5"/>
<path d="M68.6595 261.736C87.4349 262.715 103.449 248.287 104.427 229.512C105.406 210.737 90.9784 194.723 72.2029 193.744C53.4275 192.766 37.4138 207.193 36.4353 225.969C35.4568 244.744 49.8841 260.758 68.6595 261.736Z" fill="#CAE1F5"/>
<path d="M80.6111 257.981C98.558 252.383 108.569 233.296 102.971 215.349C97.3732 197.402 78.2864 187.391 60.3395 192.989C42.3926 198.587 32.3817 217.674 37.9795 235.621C43.5774 253.568 62.6642 263.579 80.6111 257.981Z" fill="#CAE1F5"/>
<path d="M73.281 257.108C92.0195 255.583 105.974 239.156 104.448 220.417C102.923 201.679 86.4958 187.725 67.7573 189.25C49.0187 190.775 35.0647 207.202 36.59 225.941C38.1153 244.679 54.5424 258.633 73.281 257.108Z" fill="#CAE1F5"/>
<path d="M70.9071 254.997C89.7062 254.782 104.772 239.368 104.557 220.569C104.342 201.77 88.9278 186.704 70.1287 186.919C51.3295 187.134 36.2641 202.548 36.4791 221.347C36.694 240.147 52.108 255.212 70.9071 254.997Z" fill="#CAE1F5"/>
<path d="M72.5631 252.669C91.3273 251.493 105.585 235.328 104.409 216.564C103.233 197.8 87.068 183.542 68.3038 184.718C49.5395 185.894 35.2816 202.059 36.4578 220.823C37.634 239.587 53.7989 253.845 72.5631 252.669Z" fill="#CAE1F5"/>
<path d="M50.7963 244.37C66.213 255.129 87.4325 251.353 98.1915 235.937C108.951 220.52 105.175 199.3 89.7581 188.541C74.3414 177.782 53.1219 181.558 42.3629 196.975C31.6039 212.392 35.3796 233.611 50.7963 244.37Z" fill="#CAE1F5"/>
<path d="M74.853 247.936C93.4735 245.343 106.466 228.146 103.873 209.525C101.279 190.905 84.082 177.912 65.4615 180.505C46.841 183.099 33.8485 200.296 36.4419 218.917C39.0353 237.537 56.2325 250.53 74.853 247.936Z" fill="#CAE1F5"/>
<path d="M43.4417 233.306C55.2259 247.955 76.6541 250.277 91.3028 238.493C105.952 226.708 108.274 205.28 96.4896 190.631C84.7053 175.983 63.2772 173.66 48.6284 185.445C33.9796 197.229 31.6575 218.657 43.4417 233.306Z" fill="#CAE1F5"/>
<path d="M62.8052 243.036C81.2158 246.839 99.2237 234.997 103.027 216.586C106.83 198.176 94.9883 180.168 76.5776 176.365C58.167 172.562 40.1591 184.403 36.356 202.814C32.5528 221.225 44.3945 239.232 62.8052 243.036Z" fill="#CAE1F5"/>
<path d="M82.0056 239.102C99.4852 232.18 108.044 212.398 101.122 194.919C94.1998 177.439 74.4184 168.881 56.9387 175.803C39.4591 182.725 30.9005 202.506 37.8225 219.986C44.7445 237.465 64.5259 246.024 82.0056 239.102Z" fill="#CAE1F5"/>
<path d="M78.5706 237.961C96.6371 232.759 107.067 213.897 101.866 195.831C96.6645 177.764 77.8024 167.335 59.7358 172.536C41.6693 177.737 31.2397 196.599 36.4408 214.666C41.6419 232.732 60.504 243.162 78.5706 237.961Z" fill="#CAE1F5"/>
<path d="M52.7088 232.994C69.2688 241.895 89.909 235.686 98.8099 219.126C107.711 202.566 101.502 181.926 84.9417 173.025C68.3816 164.124 47.7414 170.333 38.8406 186.893C29.9397 203.453 36.1487 224.093 52.7088 232.994Z" fill="#CAE1F5"/>
<path d="M67.9486 234.851C86.7468 235.106 102.193 220.074 102.448 201.276C102.703 182.478 87.6712 167.032 68.873 166.777C50.0749 166.521 34.629 181.553 34.3737 200.352C34.1185 219.15 49.1505 234.596 67.9486 234.851Z" fill="#CAE1F5"/>
<path d="M76.9699 231.425C95.1025 226.462 105.778 207.739 100.815 189.606C95.8516 171.474 77.1287 160.798 58.996 165.761C40.8634 170.724 30.1876 189.447 35.151 207.58C40.1143 225.713 58.8373 236.388 76.9699 231.425Z" fill="#CAE1F5"/>
<path d="M49.5464 225.327C65.5212 235.238 86.5066 230.323 96.4186 214.349C106.33 198.374 101.416 177.388 85.4407 167.476C69.4658 157.565 48.4804 162.479 38.5685 178.454C28.6565 194.429 33.5715 215.415 49.5464 225.327Z" fill="#CAE1F5"/>
<path d="M52.3909 224.986C69.3701 233.059 89.6791 225.839 97.7522 208.86C105.825 191.881 98.6056 171.572 81.6264 163.499C64.6472 155.425 44.3382 162.645 36.2651 179.624C28.1919 196.604 35.4117 216.913 52.3909 224.986Z" fill="#CAE1F5"/>
<path d="M49.6533 221.695C66.0195 230.946 86.7861 225.178 96.0369 208.811C105.288 192.445 99.5194 171.678 83.1532 162.428C66.787 153.177 46.0203 158.945 36.7696 175.311C27.5188 191.678 33.287 212.444 49.6533 221.695Z" fill="#CAE1F5"/>
<path d="M67.9549 223.87C86.7202 222.728 101.006 206.589 99.8636 187.824C98.721 169.059 82.5825 154.773 63.8173 155.916C45.0521 157.058 30.7661 173.197 31.9087 191.962C33.0512 210.727 49.1897 225.013 67.9549 223.87Z" fill="#CAE1F5"/>
<path d="M37.8888 208.012C49.082 223.118 70.4015 226.29 85.5072 215.097C100.613 203.903 103.785 182.584 92.5913 167.478C81.3981 152.373 60.0786 149.201 44.973 160.394C29.8673 171.587 26.6956 192.907 37.8888 208.012Z" fill="#CAE1F5"/>
<path d="M64.6931 219.653C83.4931 219.578 98.6731 204.278 98.5985 185.478C98.524 166.678 83.2232 151.498 64.4232 151.572C45.6232 151.647 30.4432 166.947 30.5177 185.747C30.5923 204.547 45.8931 219.727 64.6931 219.653Z" fill="#CAE1F5"/>
<path d="M65.4797 217.429C84.2567 216.483 98.7116 200.494 97.7655 181.717C96.8194 162.94 80.8306 148.485 62.0535 149.431C43.2765 150.378 28.8217 166.366 29.7678 185.143C30.7139 203.92 46.7026 218.375 65.4797 217.429Z" fill="#CAE1F5"/>
<path d="M77.3582 212.152C94.3995 204.213 101.779 183.963 93.84 166.922C85.9013 149.881 65.6511 142.502 48.6098 150.44C31.5686 158.379 24.1895 178.629 32.1281 195.67C40.0668 212.712 60.317 220.091 77.3582 212.152Z" fill="#CAE1F5"/>
<path d="M76.8145 209.941C93.7961 201.876 101.024 181.571 92.9588 164.59C84.8935 147.608 64.5889 140.38 47.6073 148.445C30.6257 156.511 23.3976 176.815 31.463 193.797C39.5283 210.778 59.8329 218.006 76.8145 209.941Z" fill="#CAE1F5"/>
<path d="M65.3204 210.89C83.9914 208.688 97.3421 191.767 95.14 173.096C92.9379 154.425 76.0169 141.074 57.3459 143.276C38.6749 145.479 25.3242 162.4 27.5263 181.071C29.7284 199.742 46.6494 213.092 65.3204 210.89Z" fill="#CAE1F5"/>
<path d="M38.2888 200.858C52.5801 213.073 74.0674 211.389 86.2819 197.098C98.4964 182.806 96.8128 161.319 82.5214 149.105C68.23 136.89 46.7427 138.574 34.5282 152.865C22.3137 167.157 23.9974 188.644 38.2888 200.858Z" fill="#CAE1F5"/>
<path d="M58.3976 206.866C77.1882 207.456 92.8995 192.702 93.4898 173.911C94.0801 155.12 79.3258 139.409 60.5351 138.819C41.7445 138.229 26.0332 152.983 25.4429 171.773C24.8527 190.564 39.607 206.275 58.3976 206.866Z" fill="#CAE1F5"/>
<path d="M35.234 195.684C48.9778 208.512 70.518 207.769 83.3454 194.025C96.1728 180.281 95.4299 158.741 81.6861 145.914C67.9423 133.086 46.4021 133.829 33.5747 147.573C20.7473 161.317 21.4902 182.857 35.234 195.684Z" fill="#CAE1F5"/>
<path d="M33.1902 192.724C46.416 206.085 67.9683 206.194 81.3286 192.968C94.689 179.742 94.7981 158.19 81.5723 144.83C68.3466 131.469 46.7943 131.36 33.4339 144.586C20.0736 157.812 19.9645 179.364 33.1902 192.724Z" fill="#CAE1F5"/>
<path d="M56.4333 200.783C75.2336 200.721 90.4242 185.43 90.3622 166.629C90.3003 147.829 75.0094 132.638 56.209 132.7C37.4087 132.762 22.2182 148.053 22.2801 166.854C22.342 185.654 37.6329 200.844 56.4333 200.783Z" fill="#CAE1F5"/>
<path d="M31.6208 189.429C45.2236 202.407 66.7717 201.9 79.7497 188.298C92.7277 174.695 92.2212 153.147 78.6184 140.169C65.0156 127.191 43.4675 127.697 30.4895 141.3C17.5115 154.903 18.018 176.451 31.6208 189.429Z" fill="#CAE1F5"/>
<path d="M64.4192 195.2C82.3139 189.434 92.146 170.253 86.3798 152.358C80.6136 134.463 61.4327 124.631 43.538 130.397C25.6433 136.163 15.8111 155.344 21.5773 173.239C27.3435 191.134 46.5244 200.966 64.4192 195.2Z" fill="#CAE1F5"/>
<path d="M32.5345 188.312C47.6776 199.455 68.9869 196.212 80.1302 181.069C91.2734 165.926 88.0309 144.617 72.8878 133.474C57.7447 122.33 36.4354 125.573 25.2921 140.716C14.1489 155.859 17.3914 177.168 32.5345 188.312Z" fill="#CAE1F5"/>
<path d="M28.8348 184.391C42.8636 196.907 64.3824 195.68 76.8984 181.652C89.4144 167.623 88.188 146.104 74.1592 133.588C60.1304 121.072 38.6116 122.298 26.0956 136.327C13.5796 150.356 14.806 171.875 28.8348 184.391Z" fill="#CAE1F5"/>
<path d="M23.0041 177.58C34.2853 192.619 55.6222 195.665 70.6613 184.384C85.7004 173.103 88.7467 151.766 77.4655 136.727C66.1843 121.688 44.8475 118.641 29.8084 129.923C14.7693 141.204 11.7229 162.541 23.0041 177.58Z" fill="#CAE1F5"/>
<path d="M41.9458 188.651C60.3564 192.454 78.3643 180.612 82.1675 162.202C85.9706 143.791 74.1289 125.783 55.7182 121.98C37.3076 118.177 19.2997 130.019 15.4966 148.429C11.6934 166.84 23.5351 184.848 41.9458 188.651Z" fill="#CAE1F5"/>
<path d="M58.924 185.607C76.6322 179.292 85.8684 159.818 79.5535 142.11C73.2386 124.401 53.7641 115.165 36.0558 121.48C18.3476 127.795 9.1114 147.269 15.4263 164.978C21.7411 182.686 41.2157 191.922 58.924 185.607Z" fill="#CAE1F5"/>
<path d="M58.1141 183.66C75.7023 177.019 84.5768 157.378 77.9359 139.789C71.2949 122.201 51.6532 113.327 34.065 119.968C16.4768 126.609 7.60233 146.25 14.2433 163.838C20.8843 181.427 40.5259 190.301 58.1141 183.66Z" fill="#CAE1F5"/>
<path d="M34.9274 182.67C52.9339 188.074 71.912 177.858 77.3163 159.852C82.7206 141.846 72.5045 122.867 54.4981 117.463C36.4916 112.059 17.5135 122.275 12.1092 140.281C6.7049 158.288 16.921 177.266 34.9274 182.67Z" fill="#CAE1F5"/>
<path d="M42.7572 182.419C61.5554 182.674 77.0013 167.642 77.2565 148.844C77.5118 130.046 62.4798 114.6 43.6816 114.345C24.8835 114.09 9.4376 129.122 9.18233 147.92C8.92707 166.718 23.9591 182.164 42.7572 182.419Z" fill="#CAE1F5"/>
<path d="M14.4615 167.12C25.7387 182.163 47.0757 185.216 62.1191 173.939C77.1626 162.662 80.2157 141.325 68.9386 126.282C57.6615 111.238 36.3244 108.185 21.281 119.462C6.23757 130.739 3.18438 152.076 14.4615 167.12Z" fill="#CAE1F5"/>
<path d="M52.6278 176.789C70.1239 169.909 78.7302 150.149 71.8506 132.653C64.971 115.157 45.2106 106.55 27.7146 113.43C10.2185 120.31 1.61218 140.07 8.49179 157.566C15.3714 175.062 35.1318 183.669 52.6278 176.789Z" fill="#CAE1F5"/>
<path d="M22.8431 173.639C39.4963 182.364 60.0692 175.937 68.794 159.284C77.5188 142.63 71.0915 122.058 54.4384 113.333C37.7852 104.608 17.2123 111.035 8.48754 127.688C-0.237248 144.342 6.18997 164.914 22.8431 173.639Z" fill="#CAE1F5"/>
<path d="M47.1778 174.417C65.1228 168.812 75.1261 149.721 69.5207 131.776C63.9153 113.831 44.824 103.827 26.879 109.433C8.93401 115.038 -1.06924 134.129 4.53612 152.074C10.1415 170.019 29.2328 180.023 47.1778 174.417Z" fill="#CAE1F5"/>
<path d="M15.9291 168.294C31.3458 179.053 52.5654 175.277 63.3244 159.86C74.0834 144.444 70.3076 123.224 54.8909 112.465C39.4742 101.706 18.2547 105.482 7.49568 120.899C-3.26332 136.315 0.512455 157.535 15.9291 168.294Z" fill="#CAE1F5"/>
<path d="M44.6085 171.159C62.4154 165.13 71.9637 145.808 65.9352 128.001C59.9067 110.194 40.5843 100.646 22.7774 106.674C4.97049 112.703 -4.57778 132.025 1.45071 149.832C7.4792 167.639 26.8016 177.187 44.6085 171.159Z" fill="#CAE1F5"/>
<path d="M22.2907 170.024C40.2971 175.428 59.2753 165.212 64.6796 147.205C70.0839 129.199 59.8678 110.221 41.8614 104.817C23.8549 99.4123 4.87677 109.628 -0.527523 127.635C-5.93181 145.641 4.28425 164.619 22.2907 170.024Z" fill="#CAE1F5"/>
<path d="M14.2049 165.98C30.7649 174.881 51.4051 168.672 60.3059 152.112C69.2068 135.552 62.9978 114.912 46.4378 106.011C29.8777 97.1101 9.23754 103.319 0.336672 119.879C-8.5642 136.439 -2.3552 157.079 14.2049 165.98Z" fill="#CAE1F5"/>
<path d="M32.5587 168.398C51.2297 166.196 64.5804 149.275 62.3783 130.604C60.1762 111.933 43.2552 98.5821 24.5842 100.784C5.91319 102.986 -7.4375 119.907 -5.23539 138.578C-3.03329 157.249 13.8877 170.6 32.5587 168.398Z" fill="#CAE1F5"/>
<path d="M23.1943 167.112C41.8892 169.103 58.6587 155.562 60.6498 136.867C62.641 118.172 49.0998 101.403 30.4049 99.4119C11.7099 97.4208 -5.05946 110.962 -7.05061 129.657C-9.04176 148.352 4.49935 165.121 23.1943 167.112Z" fill="#CAE1F5"/>
<path d="M23.2962 165.928C42.0716 166.906 58.0853 152.479 59.0638 133.703C60.0423 114.928 45.6151 98.9143 26.8397 97.9358C8.06423 96.9573 -7.94948 111.385 -8.92798 130.16C-9.90648 148.935 4.52077 164.949 23.2962 165.928Z" fill="#CAE1F5"/>
<path d="M-5.26802 149.314C5.03954 165.038 26.1418 169.428 41.8651 159.12C57.5885 148.813 61.9789 127.711 51.6713 111.987C41.3637 96.2639 20.2615 91.8735 4.53815 102.181C-11.1852 112.489 -15.5756 133.591 -5.26802 149.314Z" fill="#CAE1F5"/>
<path d="M37.4441 159.4C54.0242 150.538 60.2803 129.912 51.4174 113.332C42.5546 96.752 21.9291 90.4959 5.34902 99.3587C-11.2311 108.222 -17.4872 128.847 -8.62435 145.427C0.238458 162.007 20.864 168.263 37.4441 159.4Z" fill="#CAE1F5"/>
<path d="M9.75945 160.731C27.7659 166.135 46.744 155.919 52.1483 137.912C57.5526 119.906 47.3366 100.928 29.3301 95.5236C11.3237 90.1193 -7.65448 100.335 -13.0588 118.342C-18.4631 136.348 -8.247 155.326 9.75945 160.731Z" fill="#CAE1F5"/>
<path d="M-5.26207 152.114C8.64053 164.768 30.1692 163.757 42.8236 149.854C55.478 135.951 54.4661 114.423 40.5635 101.768C26.6609 89.1139 5.13222 90.1258 -7.52217 104.028C-20.1766 117.931 -19.1647 139.46 -5.26207 152.114Z" fill="#CAE1F5"/>
<path d="M7.57157 158.9C25.8288 163.389 44.2691 152.229 48.7591 133.972C53.249 115.714 42.0884 97.2741 23.8312 92.7841C5.57388 88.2941 -12.8664 99.4547 -17.3564 117.712C-21.8463 135.969 -10.6857 154.41 7.57157 158.9Z" fill="#CAE1F5"/>
<path d="M18.5054 158.346C37.1259 155.753 50.1184 138.556 47.525 119.935C44.9316 101.315 27.7344 88.3222 9.11385 90.9156C-9.50666 93.509 -22.4992 110.706 -19.9058 129.327C-17.3124 147.947 -0.115138 160.94 18.5054 158.346Z" fill="#CAE1F5"/>
<path d="M2.01335 156.125C20.0198 161.53 38.9979 151.313 44.4022 133.307C49.8065 115.301 39.5905 96.3224 21.584 90.9181C3.57758 85.5139 -15.4006 95.7299 -20.8049 113.736C-26.2092 131.743 -15.9931 150.721 2.01335 156.125Z" fill="#CAE1F5"/>
<path d="M-17.5409 142.755C-6.34765 157.86 14.9718 161.032 30.0775 149.839C45.1832 138.646 48.3549 117.326 37.1617 102.22C25.9684 87.1147 4.64895 83.943 -10.4567 95.1363C-25.5624 106.329 -28.7341 127.649 -17.5409 142.755Z" fill="#CAE1F5"/>
<path d="M-9.01433 151.074C7.30885 160.404 28.1044 154.734 37.4338 138.411C46.7633 122.088 41.0937 101.292 24.7706 91.9628C8.44739 82.6333 -12.3482 88.3029 -21.6776 104.626C-31.007 120.949 -25.3375 141.745 -9.01433 151.074Z" fill="#CAE1F5"/>
<path d="M9.83607 154.267C28.5071 152.065 41.8578 135.144 39.6557 116.473C37.4536 97.802 20.5325 84.4513 1.86154 86.6534C-16.8095 88.8555 -30.1602 105.776 -27.958 124.447C-25.7559 143.118 -8.83494 156.469 9.83607 154.267Z" fill="#CAE1F5"/>
<path d="M15.0835 151.653C32.8268 145.439 42.173 126.017 35.9588 108.274C29.7447 90.5307 10.3234 81.1845 -7.41988 87.3987C-25.1631 93.6128 -34.5093 113.034 -28.2952 130.777C-22.081 148.521 -2.65971 157.867 15.0835 151.653Z" fill="#CAE1F5"/>
<path d="M17.8977 148.574C34.4618 139.681 40.6808 119.045 31.7883 102.481C22.8958 85.9165 2.25912 79.6975 -14.305 88.5901C-30.869 97.4826 -37.0881 118.119 -28.1955 134.683C-19.303 151.247 1.33367 157.466 17.8977 148.574Z" fill="#CAE1F5"/>
<path d="M-23.4292 142.642C-9.63815 155.418 11.899 154.596 24.6753 140.805C37.4517 127.014 36.6291 105.476 22.8381 92.7C9.04704 79.9237 -12.4901 80.7463 -25.2665 94.5373C-38.0428 108.328 -37.2202 129.865 -23.4292 142.642Z" fill="#CAE1F5"/>
<path d="M-29.8023 137.007C-18.6371 152.132 2.67534 155.342 17.8004 144.177C32.9254 133.011 36.1355 111.699 24.9703 96.5738C13.8051 81.4488 -7.50737 78.2387 -22.6324 89.4039C-37.7574 100.569 -40.9675 121.882 -29.8023 137.007Z" fill="#CAE1F5"/>
<path d="M-32.8521 134.805C-22.4514 150.465 -1.32476 154.729 14.3357 144.329C29.9961 133.928 34.26 112.801 23.8594 97.1409C13.4587 81.4805 -7.66795 77.2165 -23.3284 87.6172C-38.9888 98.0178 -43.2527 119.145 -32.8521 134.805Z" fill="#CAE1F5"/>
<path d="M5.8136 146.857C23.3142 139.99 31.9344 120.236 25.0673 102.736C18.2001 85.235 -1.55385 76.6148 -19.0545 83.482C-36.5551 90.3491 -45.1753 110.103 -38.3081 127.604C-31.441 145.104 -11.687 153.725 5.8136 146.857Z" fill="#CAE1F5"/>
<path d="M-26.2071 143.616C-10.0672 153.256 10.8311 147.986 20.4705 131.846C30.11 115.706 24.8404 94.8081 8.70045 85.1686C-7.43946 75.5292 -28.3378 80.7988 -37.9772 96.9387C-47.6167 113.079 -42.347 133.977 -26.2071 143.616Z" fill="#CAE1F5"/>
<path d="M-30.3248 141.599C-14.9081 152.358 6.31144 148.582 17.0704 133.165C27.8294 117.749 24.0537 96.5289 8.637 85.77C-6.77967 75.011 -27.9992 78.7867 -38.7582 94.2034C-49.5172 109.62 -45.7415 130.84 -30.3248 141.599Z" fill="#CAE1F5"/>
<path d="M-35.5792 138.441C-21.5211 150.924 -0.00514661 149.648 12.478 135.59C24.9611 121.531 23.6844 100.016 9.62631 87.5324C-4.43179 75.0493 -25.9477 76.326 -38.4309 90.3841C-50.914 104.442 -49.6373 125.958 -35.5792 138.441Z" fill="#CAE1F5"/>
<path d="M0.100954 142.741C16.9092 134.318 23.7066 113.864 15.2834 97.056C6.86027 80.2478 -13.5938 73.4504 -30.402 81.8735C-47.2102 90.2967 -54.0076 110.751 -45.5845 127.559C-37.1613 144.367 -16.7073 151.165 0.100954 142.741Z" fill="#CAE1F5"/>
<path d="M-40.2848 136.848C-26.3936 149.517 -4.86219 148.526 7.80684 134.634C20.4759 120.743 19.485 99.2119 5.59377 86.5428C-8.2975 73.8738 -29.8289 74.8646 -42.4979 88.7559C-55.1669 102.647 -54.1761 124.179 -40.2848 136.848Z" fill="#CAE1F5"/>
<path d="M-44.0483 134.674C-31.0292 148.237 -9.47985 148.678 4.08357 135.659C17.647 122.64 18.0883 101.091 5.06921 87.5275C-7.94986 73.9641 -29.4992 73.5228 -43.0627 86.5419C-56.6261 99.561 -57.0674 121.11 -44.0483 134.674Z" fill="#CAE1F5"/>
<path d="M-9.43358 142.27C8.09901 135.486 16.8125 115.774 10.0285 98.2411C3.24452 80.7085 -16.468 71.995 -34.0005 78.779C-51.5331 85.563 -60.2466 105.275 -53.4626 122.808C-46.6786 140.341 -26.9662 149.054 -9.43358 142.27Z" fill="#CAE1F5"/>
<path d="M-11.4737 141.709C6.02233 134.829 14.6287 115.069 7.74906 97.5728C0.869445 80.0767 -18.8909 71.4704 -36.387 78.35C-53.8831 85.2296 -62.4894 104.99 -55.6098 122.486C-48.7302 139.982 -28.9698 148.588 -11.4737 141.709Z" fill="#CAE1F5"/>
<path d="M-15.5381 141.88C2.32049 136.003 12.0335 116.762 6.15654 98.903C0.279575 81.0445 -18.9619 71.3315 -36.8204 77.2084C-54.679 83.0854 -64.392 102.327 -58.5151 120.185C-52.6381 138.044 -33.3966 147.757 -15.5381 141.88Z" fill="#CAE1F5"/>
<path d="M-27.2673 143.055C-8.47719 142.431 6.24909 126.692 5.62476 107.902C5.00042 89.1121 -10.7381 74.3858 -29.5282 75.0102C-48.3184 75.6345 -63.0447 91.373 -62.4203 110.163C-61.796 128.953 -46.0575 143.68 -27.2673 143.055Z" fill="#CAE1F5"/>
<path d="M-53.1541 134.129C-39.0879 146.603 -17.5724 145.313 -5.0979 131.247C7.37659 117.181 6.08621 95.6651 -7.98003 83.1906C-22.0463 70.7161 -43.5618 72.0065 -56.0363 86.0727C-68.5108 100.139 -67.2204 121.654 -53.1541 134.129Z" fill="#CAE1F5"/>
<path d="M-37.3232 141.99C-18.6873 144.474 -1.56622 131.381 0.917949 112.745C3.40212 94.1091 -9.69138 76.988 -28.3272 74.5038C-46.963 72.0197 -64.0841 85.1132 -66.5683 103.749C-69.0525 122.385 -55.959 139.506 -37.3232 141.99Z" fill="#CAE1F5"/>
<path d="M-29.8524 141.511C-11.2731 138.638 1.45995 121.248 -1.41231 102.669C-4.28457 84.0898 -21.6745 71.3567 -40.2538 74.229C-58.833 77.1013 -71.5661 94.4912 -68.6938 113.07C-65.8216 131.65 -48.4317 144.383 -29.8524 141.511Z" fill="#CAE1F5"/>
<path d="M-59.8917 132.974C-45.8336 145.458 -24.3176 144.181 -11.8345 130.123C0.648647 116.065 -0.628102 94.5488 -14.6862 82.0656C-28.7443 69.5825 -50.2602 70.8592 -62.7434 84.9173C-75.2265 98.9754 -73.9498 120.491 -59.8917 132.974Z" fill="#CAE1F5"/>
</g>
</svg>
